# Rhino

g object_1
v 344.17623694467568 0 -53.205114777375172
v 346.17623694467568 0 -53.205114777375172
v 346.17623694467568 6 -53.205114777375172
v 344.17623694467568 6 -53.205114777375172
v 346.17623694467568 0 -55.205114777375172
v 346.17623694467568 6 -55.205114777375172
v 344.17623694467568 0 -55.205114777375172
v 344.17623694467568 6 -55.205114777375172
vn 0 0 1
vn 0 0 1
vn 0 0 1
vn 0 0 1
vn 1 0 0
vn 1 0 0
vn 1 0 0
vn 1 0 0
vn 0 0 -1
vn 0 0 -1
vn 0 0 -1
vn 0 0 -1
vn -1 0 0
vn -1 0 0
vn -1 0 0
vn -1 0 0
vn 0 -1 0
vn 0 -1 0
vn 0 -1 0
vn 0 -1 0
vn 0 1 0
vn 0 1 0
vn 0 1 0
vn 0 1 0
f 1//1 2//2 3//3 4//4
f 2//5 5//6 6//7 3//8
f 5//9 7//10 8//11 6//12
f 7//13 1//14 4//15 8//16
f 1//17 7//18 5//19 2//20
f 4//21 3//22 6//23 8//24
g object_2
v 334.17623694467568 0 -53.205114777375172
v 336.17623694467568 0 -53.205114777375172
v 336.17623694467568 6 -53.205114777375172
v 334.17623694467568 6 -53.205114777375172
v 336.17623694467568 0 -55.205114777375172
v 336.17623694467568 6 -55.205114777375172
v 334.17623694467568 0 -55.205114777375172
v 334.17623694467568 6 -55.205114777375172
vn 0 0 1
vn 0 0 1
vn 0 0 1
vn 0 0 1
vn 1 0 0
vn 1 0 0
vn 1 0 0
vn 1 0 0
vn 0 0 -1
vn 0 0 -1
vn 0 0 -1
vn 0 0 -1
vn -1 0 0
vn -1 0 0
vn -1 0 0
vn -1 0 0
vn 0 -1 0
vn 0 -1 0
vn 0 -1 0
vn 0 -1 0
vn 0 1 0
vn 0 1 0
vn 0 1 0
vn 0 1 0
f 9//25 10//26 11//27 12//28
f 10//29 13//30 14//31 11//32
f 13//33 15//34 16//35 14//36
f 15//37 9//38 12//39 16//40
f 9//41 15//42 13//43 10//44
f 12//45 11//46 14//47 16//48
g object_3
v 324.17623694467568 0 -53.205114777375172
v 326.17623694467568 0 -53.205114777375172
v 326.17623694467568 6 -53.205114777375172
v 324.17623694467568 6 -53.205114777375172
v 326.17623694467568 0 -55.205114777375172
v 326.17623694467568 6 -55.205114777375172
v 324.17623694467568 0 -55.205114777375172
v 324.17623694467568 6 -55.205114777375172
vn 0 0 1
vn 0 0 1
vn 0 0 1
vn 0 0 1
vn 1 0 0
vn 1 0 0
vn 1 0 0
vn 1 0 0
vn 0 0 -1
vn 0 0 -1
vn 0 0 -1
vn 0 0 -1
vn -1 0 0
vn -1 0 0
vn -1 0 0
vn -1 0 0
vn 0 -1 0
vn 0 -1 0
vn 0 -1 0
vn 0 -1 0
vn 0 1 0
vn 0 1 0
vn 0 1 0
vn 0 1 0
f 17//49 18//50 19//51 20//52
f 18//53 21//54 22//55 19//56
f 21//57 23//58 24//59 22//60
f 23//61 17//62 20//63 24//64
f 17//65 23//66 21//67 18//68
f 20//69 19//70 22//71 24//72
g object_4
v 354.17623694467568 0 -53.205114777375172
v 356.17623694467568 0 -53.205114777375172
v 356.17623694467568 6 -53.205114777375172
v 354.17623694467568 6 -53.205114777375172
v 356.17623694467568 0 -55.205114777375172
v 356.17623694467568 6 -55.205114777375172
v 354.17623694467568 0 -55.205114777375172
v 354.17623694467568 6 -55.205114777375172
vn 0 0 1
vn 0 0 1
vn 0 0 1
vn 0 0 1
vn 1 0 0
vn 1 0 0
vn 1 0 0
vn 1 0 0
vn 0 0 -1
vn 0 0 -1
vn 0 0 -1
vn 0 0 -1
vn -1 0 0
vn -1 0 0
vn -1 0 0
vn -1 0 0
vn 0 -1 0
vn 0 -1 0
vn 0 -1 0
vn 0 -1 0
vn 0 1 0
vn 0 1 0
vn 0 1 0
vn 0 1 0
f 25//73 26//74 27//75 28//76
f 26//77 29//78 30//79 27//80
f 29//81 31//82 32//83 30//84
f 31//85 25//86 28//87 32//88
f 25//89 31//90 29//91 26//92
f 28//93 27//94 30//95 32//96
g object_5
v 344.17623694467568 0 -44.205114777375172
v 344.17623694467568 6 -44.205114777375172
v 346.17623694467568 6 -44.205114777375172
v 346.17623694467568 0 -44.205114777375172
v 346.17623694467568 6 -42.205114777375172
v 346.17623694467568 0 -42.205114777375172
v 344.17623694467568 6 -42.205114777375172
v 344.17623694467568 0 -42.205114777375172
vn 0 0 -1
vn 0 0 -1
vn 0 0 -1
vn 0 0 -1
vn 1 0 0
vn 1 0 0
vn 1 0 0
vn 1 0 0
vn 0 0 1
vn 0 0 1
vn 0 0 1
vn 0 0 1
vn -1 0 0
vn -1 0 0
vn -1 0 0
vn -1 0 0
vn 0 -1 0
vn 0 -1 0
vn 0 -1 0
vn 0 -1 0
vn 0 1 0
vn 0 1 0
vn 0 1 0
vn 0 1 0
f 33//97 34//98 35//99 36//100
f 36//101 35//102 37//103 38//104
f 38//105 37//106 39//107 40//108
f 40//109 39//110 34//111 33//112
f 33//113 36//114 38//115 40//116
f 34//117 39//118 37//119 35//120
g object_6
v 334.17623694467568 0 -44.205114777375172
v 334.17623694467568 6 -44.205114777375172
v 336.17623694467568 6 -44.205114777375172
v 336.17623694467568 0 -44.205114777375172
v 336.17623694467568 6 -42.205114777375172
v 336.17623694467568 0 -42.205114777375172
v 334.17623694467568 6 -42.205114777375172
v 334.17623694467568 0 -42.205114777375172
vn 0 0 -1
vn 0 0 -1
vn 0 0 -1
vn 0 0 -1
vn 1 0 0
vn 1 0 0
vn 1 0 0
vn 1 0 0
vn 0 0 1
vn 0 0 1
vn 0 0 1
vn 0 0 1
vn -1 0 0
vn -1 0 0
vn -1 0 0
vn -1 0 0
vn 0 -1 0
vn 0 -1 0
vn 0 -1 0
vn 0 -1 0
vn 0 1 0
vn 0 1 0
vn 0 1 0
vn 0 1 0
f 41//121 42//122 43//123 44//124
f 44//125 43//126 45//127 46//128
f 46//129 45//130 47//131 48//132
f 48//133 47//134 42//135 41//136
f 41//137 44//138 46//139 48//140
f 42//141 47//142 45//143 43//144
g object_7
v 354.17623694467568 0 -44.205114777375172
v 354.17623694467568 6 -44.205114777375172
v 356.17623694467568 6 -44.205114777375172
v 356.17623694467568 0 -44.205114777375172
v 356.17623694467568 6 -42.205114777375172
v 356.17623694467568 0 -42.205114777375172
v 354.17623694467568 6 -42.205114777375172
v 354.17623694467568 0 -42.205114777375172
vn 0 0 -1
vn 0 0 -1
vn 0 0 -1
vn 0 0 -1
vn 1 0 0
vn 1 0 0
vn 1 0 0
vn 1 0 0
vn 0 0 1
vn 0 0 1
vn 0 0 1
vn 0 0 1
vn -1 0 0
vn -1 0 0
vn -1 0 0
vn -1 0 0
vn 0 -1 0
vn 0 -1 0
vn 0 -1 0
vn 0 -1 0
vn 0 1 0
vn 0 1 0
vn 0 1 0
vn 0 1 0
f 49//145 50//146 51//147 52//148
f 52//149 51//150 53//151 54//152
f 54//153 53//154 55//155 56//156
f 56//157 55//158 50//159 49//160
f 49//161 52//162 54//163 56//164
f 50//165 55//166 53//167 51//168
g object_8
v 362.67623528843063 0 -16.705114777375201
v 362.67623528843063 0 -18.705114777375201
v 362.67623528843063 6 -18.705114777375201
v 362.67623528843063 6 -16.705114777375201
v 360.67623528843063 0 -18.705114777375201
v 360.67623528843063 6 -18.705114777375201
v 360.67623528843063 0 -16.705114777375201
v 360.67623528843063 6 -16.705114777375201
vn 1 0 0
vn 1 0 0
vn 1 0 0
vn 1 0 0
vn 0 0 -1
vn 0 0 -1
vn 0 0 -1
vn 0 0 -1
vn -1 0 0
vn -1 0 0
vn -1 0 0
vn -1 0 0
vn 0 0 1
vn 0 0 1
vn 0 0 1
vn 0 0 1
vn 0 -1 0
vn 0 -1 0
vn 0 -1 0
vn 0 -1 0
vn 0 1 0
vn 0 1 0
vn 0 1 0
vn 0 1 0
f 57//169 58//170 59//171 60//172
f 58//173 61//174 62//175 59//176
f 61//177 63//178 64//179 62//180
f 63//181 57//182 60//183 64//184
f 57//185 63//186 61//187 58//188
f 60//189 59//190 62//191 64//192
g object_9
v 362.67623528843063 0 -6.7051147773752007
v 362.67623528843063 0 -8.7051147773752007
v 362.67623528843063 6 -8.7051147773752007
v 362.67623528843063 6 -6.7051147773752007
v 360.67623528843063 0 -8.7051147773752007
v 360.67623528843063 6 -8.7051147773752007
v 360.67623528843063 0 -6.7051147773752007
v 360.67623528843063 6 -6.7051147773752007
vn 1 0 0
vn 1 0 0
vn 1 0 0
vn 1 0 0
vn 0 0 -1
vn 0 0 -1
vn 0 0 -1
vn 0 0 -1
vn -1 0 0
vn -1 0 0
vn -1 0 0
vn -1 0 0
vn 0 0 1
vn 0 0 1
vn 0 0 1
vn 0 0 1
vn 0 -1 0
vn 0 -1 0
vn 0 -1 0
vn 0 -1 0
vn 0 1 0
vn 0 1 0
vn 0 1 0
vn 0 1 0
f 65//193 66//194 67//195 68//196
f 66//197 69//198 70//199 67//200
f 69//201 71//202 72//203 70//204
f 71//205 65//206 68//207 72//208
f 65//209 71//210 69//211 66//212
f 68//213 67//214 70//215 72//216
g object_10
v 362.67623528843063 0 3.2948852226247993
v 362.67623528843063 0 1.2948852226247993
v 362.67623528843063 6 1.2948852226247993
v 362.67623528843063 6 3.2948852226247993
v 360.67623528843063 0 1.2948852226247993
v 360.67623528843063 6 1.2948852226247993
v 360.67623528843063 0 3.2948852226247993
v 360.67623528843063 6 3.2948852226247993
vn 1 0 0
vn 1 0 0
vn 1 0 0
vn 1 0 0
vn 0 0 -1
vn 0 0 -1
vn 0 0 -1
vn 0 0 -1
vn -1 0 0
vn -1 0 0
vn -1 0 0
vn -1 0 0
vn 0 0 1
vn 0 0 1
vn 0 0 1
vn 0 0 1
vn 0 -1 0
vn 0 -1 0
vn 0 -1 0
vn 0 -1 0
vn 0 1 0
vn 0 1 0
vn 0 1 0
vn 0 1 0
f 73//217 74//218 75//219 76//220
f 74//221 77//222 78//223 75//224
f 77//225 79//226 80//227 78//228
f 79//229 73//230 76//231 80//232
f 73//233 79//234 77//235 74//236
f 76//237 75//238 78//239 80//240
g object_11
v 362.67623528843063 0 -26.705114777375201
v 362.67623528843063 0 -28.705114777375201
v 362.67623528843063 6 -28.705114777375201
v 362.67623528843063 6 -26.705114777375201
v 360.67623528843063 0 -28.705114777375201
v 360.67623528843063 6 -28.705114777375201
v 360.67623528843063 0 -26.705114777375201
v 360.67623528843063 6 -26.705114777375201
vn 1 0 0
vn 1 0 0
vn 1 0 0
vn 1 0 0
vn 0 0 -1
vn 0 0 -1
vn 0 0 -1
vn 0 0 -1
vn -1 0 0
vn -1 0 0
vn -1 0 0
vn -1 0 0
vn 0 0 1
vn 0 0 1
vn 0 0 1
vn 0 0 1
vn 0 -1 0
vn 0 -1 0
vn 0 -1 0
vn 0 -1 0
vn 0 1 0
vn 0 1 0
vn 0 1 0
vn 0 1 0
f 81//241 82//242 83//243 84//244
f 82//245 85//246 86//247 83//248
f 85//249 87//250 88//251 86//252
f 87//253 81//254 84//255 88//256
f 81//257 87//258 85//259 82//260
f 84//261 83//262 86//263 88//264
g object_12
v 371.67623528843063 0 -16.705114777375201
v 371.67623528843063 6 -16.705114777375201
v 371.67623528843063 6 -18.705114777375201
v 371.67623528843063 0 -18.705114777375201
v 373.67623528843063 6 -18.705114777375201
v 373.67623528843063 0 -18.705114777375201
v 373.67623528843063 6 -16.705114777375201
v 373.67623528843063 0 -16.705114777375201
vn -1 0 0
vn -1 0 0
vn -1 0 0
vn -1 0 0
vn 0 0 -1
vn 0 0 -1
vn 0 0 -1
vn 0 0 -1
vn 1 0 0
vn 1 0 0
vn 1 0 0
vn 1 0 0
vn 0 0 1
vn 0 0 1
vn 0 0 1
vn 0 0 1
vn 0 -1 0
vn 0 -1 0
vn 0 -1 0
vn 0 -1 0
vn 0 1 0
vn 0 1 0
vn 0 1 0
vn 0 1 0
f 89//265 90//266 91//267 92//268
f 92//269 91//270 93//271 94//272
f 94//273 93//274 95//275 96//276
f 96//277 95//278 90//279 89//280
f 89//281 92//282 94//283 96//284
f 90//285 95//286 93//287 91//288
g object_13
v 371.67623528843063 0 3.2948852226247993
v 371.67623528843063 6 3.2948852226247993
v 371.67623528843063 6 1.2948852226247993
v 371.67623528843063 0 1.2948852226247993
v 373.67623528843063 6 1.2948852226247993
v 373.67623528843063 0 1.2948852226247993
v 373.67623528843063 6 3.2948852226247993
v 373.67623528843063 0 3.2948852226247993
vn -1 0 0
vn -1 0 0
vn -1 0 0
vn -1 0 0
vn 0 0 -1
vn 0 0 -1
vn 0 0 -1
vn 0 0 -1
vn 1 0 0
vn 1 0 0
vn 1 0 0
vn 1 0 0
vn 0 0 1
vn 0 0 1
vn 0 0 1
vn 0 0 1
vn 0 -1 0
vn 0 -1 0
vn 0 -1 0
vn 0 -1 0
vn 0 1 0
vn 0 1 0
vn 0 1 0
vn 0 1 0
f 97//289 98//290 99//291 100//292
f 100//293 99//294 101//295 102//296
f 102//297 101//298 103//299 104//300
f 104//301 103//302 98//303 97//304
f 97//305 100//306 102//307 104//308
f 98//309 103//310 101//311 99//312
g object_14
v 371.67623528843063 0 -26.705114777375201
v 371.67623528843063 6 -26.705114777375201
v 371.67623528843063 6 -28.705114777375201
v 371.67623528843063 0 -28.705114777375201
v 373.67623528843063 6 -28.705114777375201
v 373.67623528843063 0 -28.705114777375201
v 373.67623528843063 6 -26.705114777375201
v 373.67623528843063 0 -26.705114777375201
vn -1 0 0
vn -1 0 0
vn -1 0 0
vn -1 0 0
vn 0 0 -1
vn 0 0 -1
vn 0 0 -1
vn 0 0 -1
vn 1 0 0
vn 1 0 0
vn 1 0 0
vn 1 0 0
vn 0 0 1
vn 0 0 1
vn 0 0 1
vn 0 0 1
vn 0 -1 0
vn 0 -1 0
vn 0 -1 0
vn 0 -1 0
vn 0 1 0
vn 0 1 0
vn 0 1 0
vn 0 1 0
f 105//313 106//314 107//315 108//316
f 108//317 107//318 109//319 110//320
f 110//321 109//322 111//323 112//324
f 112//325 111//326 106//327 105//328
f 105//329 108//330 110//331 112//332
f 106//333 111//334 109//335 107//336
g object_15
v 398.17623694467568 0 18.794885222624828
v 400.17623694467568 0 18.794885222624828
v 400.17623694467568 6 18.794885222624828
v 398.17623694467568 6 18.794885222624828
v 400.17623694467568 0 16.794885222624828
v 400.17623694467568 6 16.794885222624828
v 398.17623694467568 0 16.794885222624828
v 398.17623694467568 6 16.794885222624828
vn 0 0 1
vn 0 0 1
vn 0 0 1
vn 0 0 1
vn 1 0 0
vn 1 0 0
vn 1 0 0
vn 1 0 0
vn 0 0 -1
vn 0 0 -1
vn 0 0 -1
vn 0 0 -1
vn -1 0 0
vn -1 0 0
vn -1 0 0
vn -1 0 0
vn 0 -1 0
vn 0 -1 0
vn 0 -1 0
vn 0 -1 0
vn 0 1 0
vn 0 1 0
vn 0 1 0
vn 0 1 0
f 113//337 114//338 115//339 116//340
f 114//341 117//342 118//343 115//344
f 117//345 119//346 120//347 118//348
f 119//349 113//350 116//351 120//352
f 113//353 119//354 117//355 114//356
f 116//357 115//358 118//359 120//360
g object_16
v 388.17623694467568 0 18.794885222624828
v 390.17623694467568 0 18.794885222624828
v 390.17623694467568 6 18.794885222624828
v 388.17623694467568 6 18.794885222624828
v 390.17623694467568 0 16.794885222624828
v 390.17623694467568 6 16.794885222624828
v 388.17623694467568 0 16.794885222624828
v 388.17623694467568 6 16.794885222624828
vn 0 0 1
vn 0 0 1
vn 0 0 1
vn 0 0 1
vn 1 0 0
vn 1 0 0
vn 1 0 0
vn 1 0 0
vn 0 0 -1
vn 0 0 -1
vn 0 0 -1
vn 0 0 -1
vn -1 0 0
vn -1 0 0
vn -1 0 0
vn -1 0 0
vn 0 -1 0
vn 0 -1 0
vn 0 -1 0
vn 0 -1 0
vn 0 1 0
vn 0 1 0
vn 0 1 0
vn 0 1 0
f 121//361 122//362 123//363 124//364
f 122//365 125//366 126//367 123//368
f 125//369 127//370 128//371 126//372
f 127//373 121//374 124//375 128//376
f 121//377 127//378 125//379 122//380
f 124//381 123//382 126//383 128//384
g object_17
v 378.17623694467568 0 18.794885222624828
v 380.17623694467568 0 18.794885222624828
v 380.17623694467568 6 18.794885222624828
v 378.17623694467568 6 18.794885222624828
v 380.17623694467568 0 16.794885222624828
v 380.17623694467568 6 16.794885222624828
v 378.17623694467568 0 16.794885222624828
v 378.17623694467568 6 16.794885222624828
vn 0 0 1
vn 0 0 1
vn 0 0 1
vn 0 0 1
vn 1 0 0
vn 1 0 0
vn 1 0 0
vn 1 0 0
vn 0 0 -1
vn 0 0 -1
vn 0 0 -1
vn 0 0 -1
vn -1 0 0
vn -1 0 0
vn -1 0 0
vn -1 0 0
vn 0 -1 0
vn 0 -1 0
vn 0 -1 0
vn 0 -1 0
vn 0 1 0
vn 0 1 0
vn 0 1 0
vn 0 1 0
f 129//385 130//386 131//387 132//388
f 130//389 133//390 134//391 131//392
f 133//393 135//394 136//395 134//396
f 135//397 129//398 132//399 136//400
f 129//401 135//402 133//403 130//404
f 132//405 131//406 134//407 136//408
g object_18
v 398.17623694467568 0 27.794885222624828
v 398.17623694467568 6 27.794885222624828
v 400.17623694467568 6 27.794885222624828
v 400.17623694467568 0 27.794885222624828
v 400.17623694467568 6 29.794885222624828
v 400.17623694467568 0 29.794885222624828
v 398.17623694467568 6 29.794885222624828
v 398.17623694467568 0 29.794885222624828
vn 0 0 -1
vn 0 0 -1
vn 0 0 -1
vn 0 0 -1
vn 1 0 0
vn 1 0 0
vn 1 0 0
vn 1 0 0
vn 0 0 1
vn 0 0 1
vn 0 0 1
vn 0 0 1
vn -1 0 0
vn -1 0 0
vn -1 0 0
vn -1 0 0
vn 0 -1 0
vn 0 -1 0
vn 0 -1 0
vn 0 -1 0
vn 0 1 0
vn 0 1 0
vn 0 1 0
vn 0 1 0
f 137//409 138//410 139//411 140//412
f 140//413 139//414 141//415 142//416
f 142//417 141//418 143//419 144//420
f 144//421 143//422 138//423 137//424
f 137//425 140//426 142//427 144//428
f 138//429 143//430 141//431 139//432
g object_19
v 388.17623694467568 0 27.794885222624828
v 388.17623694467568 6 27.794885222624828
v 390.17623694467568 6 27.794885222624828
v 390.17623694467568 0 27.794885222624828
v 390.17623694467568 6 29.794885222624828
v 390.17623694467568 0 29.794885222624828
v 388.17623694467568 6 29.794885222624828
v 388.17623694467568 0 29.794885222624828
vn 0 0 -1
vn 0 0 -1
vn 0 0 -1
vn 0 0 -1
vn 1 0 0
vn 1 0 0
vn 1 0 0
vn 1 0 0
vn 0 0 1
vn 0 0 1
vn 0 0 1
vn 0 0 1
vn -1 0 0
vn -1 0 0
vn -1 0 0
vn -1 0 0
vn 0 -1 0
vn 0 -1 0
vn 0 -1 0
vn 0 -1 0
vn 0 1 0
vn 0 1 0
vn 0 1 0
vn 0 1 0
f 145//433 146//434 147//435 148//436
f 148//437 147//438 149//439 150//440
f 150//441 149//442 151//443 152//444
f 152//445 151//446 146//447 145//448
f 145//449 148//450 150//451 152//452
f 146//453 151//454 149//455 147//456
g object_20
v 378.17623694467568 0 27.794885222624828
v 378.17623694467568 6 27.794885222624828
v 380.17623694467568 6 27.794885222624828
v 380.17623694467568 0 27.794885222624828
v 380.17623694467568 6 29.794885222624828
v 380.17623694467568 0 29.794885222624828
v 378.17623694467568 6 29.794885222624828
v 378.17623694467568 0 29.794885222624828
vn 0 0 -1
vn 0 0 -1
vn 0 0 -1
vn 0 0 -1
vn 1 0 0
vn 1 0 0
vn 1 0 0
vn 1 0 0
vn 0 0 1
vn 0 0 1
vn 0 0 1
vn 0 0 1
vn -1 0 0
vn -1 0 0
vn -1 0 0
vn -1 0 0
vn 0 -1 0
vn 0 -1 0
vn 0 -1 0
vn 0 -1 0
vn 0 1 0
vn 0 1 0
vn 0 1 0
vn 0 1 0
f 153//457 154//458 155//459 156//460
f 156//461 155//462 157//463 158//464
f 158//465 157//466 159//467 160//468
f 160//469 159//470 154//471 153//472
f 153//473 156//474 158//475 160//476
f 154//477 159//478 157//479 155//480
g object_21
v 408.17623694467568 0 27.794885222624828
v 408.17623694467568 6 27.794885222624828
v 410.17623694467568 6 27.794885222624828
v 410.17623694467568 0 27.794885222624828
v 410.17623694467568 6 29.794885222624828
v 410.17623694467568 0 29.794885222624828
v 408.17623694467568 6 29.794885222624828
v 408.17623694467568 0 29.794885222624828
vn 0 0 -1
vn 0 0 -1
vn 0 0 -1
vn 0 0 -1
vn 1 0 0
vn 1 0 0
vn 1 0 0
vn 1 0 0
vn 0 0 1
vn 0 0 1
vn 0 0 1
vn 0 0 1
vn -1 0 0
vn -1 0 0
vn -1 0 0
vn -1 0 0
vn 0 -1 0
vn 0 -1 0
vn 0 -1 0
vn 0 -1 0
vn 0 1 0
vn 0 1 0
vn 0 1 0
vn 0 1 0
f 161//481 162//482 163//483 164//484
f 164//485 163//486 165//487 166//488
f 166//489 165//490 167//491 168//492
f 168//493 167//494 162//495 161//496
f 161//497 164//498 166//499 168//500
f 162//501 167//502 165//503 163//504
g object_22
v 408.17623694467568 0 18.794885222624828
v 410.17623694467568 0 18.794885222624828
v 410.17623694467568 9 18.794885222624828
v 408.17623694467568 9 18.794885222624828
v 410.17623694467568 0 16.794885222624828
v 410.17623694467568 9 16.794885222624828
v 408.17623694467568 0 16.794885222624828
v 408.17623694467568 9 16.794885222624828
vn 0 0 1
vn 0 0 1
vn 0 0 1
vn 0 0 1
vn 1 0 0
vn 1 0 0
vn 1 0 0
vn 1 0 0
vn 0 0 -1
vn 0 0 -1
vn 0 0 -1
vn 0 0 -1
vn -1 0 0
vn -1 0 0
vn -1 0 0
vn -1 0 0
vn 0 -1 0
vn 0 -1 0
vn 0 -1 0
vn 0 -1 0
vn 0 1 0
vn 0 1 0
vn 0 1 0
vn 0 1 0
f 169//505 170//506 171//507 172//508
f 170//509 173//510 174//511 171//512
f 173//513 175//514 176//515 174//516
f 175//517 169//518 172//519 176//520
f 169//521 175//522 173//523 170//524
f 172//525 171//526 174//527 176//528
g object_23
v 371.67623528843063 0 -6.7051147773752007
v 371.67623528843063 9 -6.7051147773752007
v 371.67623528843063 9 -8.7051147773752007
v 371.67623528843063 0 -8.7051147773752007
v 373.67623528843063 9 -8.7051147773752007
v 373.67623528843063 0 -8.7051147773752007
v 373.67623528843063 9 -6.7051147773752007
v 373.67623528843063 0 -6.7051147773752007
vn -1 0 0
vn -1 0 0
vn -1 0 0
vn -1 0 0
vn 0 0 -1
vn 0 0 -1
vn 0 0 -1
vn 0 0 -1
vn 1 0 0
vn 1 0 0
vn 1 0 0
vn 1 0 0
vn 0 0 1
vn 0 0 1
vn 0 0 1
vn 0 0 1
vn 0 -1 0
vn 0 -1 0
vn 0 -1 0
vn 0 -1 0
vn 0 1 0
vn 0 1 0
vn 0 1 0
vn 0 1 0
f 177//529 178//530 179//531 180//532
f 180//533 179//534 181//535 182//536
f 182//537 181//538 183//539 184//540
f 184//541 183//542 178//543 177//544
f 177//545 180//546 182//547 184//548
f 178//549 183//550 181//551 179//552
g object_24
v 324.17623694467568 0 -44.205114777375172
v 324.17623694467568 9 -44.205114777375172
v 326.17623694467568 9 -44.205114777375172
v 326.17623694467568 0 -44.205114777375172
v 326.17623694467568 9 -42.205114777375172
v 326.17623694467568 0 -42.205114777375172
v 324.17623694467568 9 -42.205114777375172
v 324.17623694467568 0 -42.205114777375172
vn 0 0 -1
vn 0 0 -1
vn 0 0 -1
vn 0 0 -1
vn 1 0 0
vn 1 0 0
vn 1 0 0
vn 1 0 0
vn 0 0 1
vn 0 0 1
vn 0 0 1
vn 0 0 1
vn -1 0 0
vn -1 0 0
vn -1 0 0
vn -1 0 0
vn 0 -1 0
vn 0 -1 0
vn 0 -1 0
vn 0 -1 0
vn 0 1 0
vn 0 1 0
vn 0 1 0
vn 0 1 0
f 185//553 186//554 187//555 188//556
f 188//557 187//558 189//559 190//560
f 190//561 189//562 191//563 192//564
f 192//565 191//566 186//567 185//568
f 185//569 188//570 190//571 192//572
f 186//573 191//574 189//575 187//576
