# Rhino

g object_1
v 317.67623694467568 6 -47.205114777375172
v 362.67623694467568 6 -47.205114777375172
v 362.67623694467568 21 -47.205114777375172
v 317.67623694467568 21 -47.205114777375172
v 362.67623694467568 6 -50.205114777375172
v 362.67623694467568 21 -50.205114777375172
v 317.67623694467568 6 -50.205114777375172
v 317.67623694467568 21 -50.205114777375172
vn 0 0 1
vn 0 0 1
vn 0 0 1
vn 0 0 1
vn 1 0 0
vn 1 0 0
vn 1 0 0
vn 1 0 0
vn 0 0 -1
vn 0 0 -1
vn 0 0 -1
vn 0 0 -1
vn -1 0 0
vn -1 0 0
vn -1 0 0
vn -1 0 0
vn 0 -1 0
vn 0 -1 0
vn 0 -1 0
vn 0 -1 0
vn 0 1 0
vn 0 1 0
vn 0 1 0
vn 0 1 0
f 1//1 2//2 3//3 4//4
f 2//5 5//6 6//7 3//8
f 5//9 7//10 8//11 6//12
f 7//13 1//14 4//15 8//16
f 1//17 7//18 5//19 2//20
f 4//21 3//22 6//23 8//24
g object_2
v 317.67623694467568 0 -42.705114777375172
v 317.67623694467568 0 -54.705114777375172
v 317.67623694467568 24 -54.705114777375172
v 317.67623694467568 24 -42.705114777375172
v 308.67623694467568 0 -54.705114777375172
v 308.67623694467568 24 -54.705114777375172
v 308.67623694467568 0 -42.705114777375172
v 308.67623694467568 24 -42.705114777375172
vn 1 0 0
vn 1 0 0
vn 1 0 0
vn 1 0 0
vn 0 0 -1
vn 0 0 -1
vn 0 0 -1
vn 0 0 -1
vn -1 0 0
vn -1 0 0
vn -1 0 0
vn -1 0 0
vn 0 0 1
vn 0 0 1
vn 0 0 1
vn 0 0 1
vn 0 -1 0
vn 0 -1 0
vn 0 -1 0
vn 0 -1 0
vn 0 1 0
vn 0 1 0
vn 0 1 0
vn 0 1 0
f 9//25 10//26 11//27 12//28
f 10//29 13//30 14//31 11//32
f 13//33 15//34 16//35 14//36
f 15//37 9//38 12//39 16//40
f 9//41 15//42 13//43 10//44
f 12//45 11//46 14//47 16//48
g object_3
v 425.67623694467568 0 29.294885222624831
v 425.67623694467568 0 17.294885222624828
v 425.67623694467568 24 17.294885222624828
v 425.67623694467568 24 29.294885222624831
v 416.67623694467568 0 17.294885222624828
v 416.67623694467568 24 17.294885222624828
v 416.67623694467568 0 29.294885222624831
v 416.67623694467568 24 29.294885222624831
vn 1 0 0
vn 1 0 0
vn 1 0 0
vn 1 0 0
vn 0 0 -1
vn 0 0 -1
vn 0 0 -1
vn 0 0 -1
vn -1 0 0
vn -1 0 0
vn -1 0 0
vn -1 0 0
vn 0 0 1
vn 0 0 1
vn 0 0 1
vn 0 0 1
vn 0 -1 0
vn 0 -1 0
vn 0 -1 0
vn 0 -1 0
vn 0 1 0
vn 0 1 0
vn 0 1 0
vn 0 1 0
f 17//49 18//50 19//51 20//52
f 18//53 21//54 22//55 19//56
f 21//57 23//58 24//59 22//60
f 23//61 17//62 20//63 24//64
f 17//65 23//66 21//67 18//68
f 20//69 19//70 22//71 24//72
g object_4
v 371.67623694467568 6 24.794885222624831
v 416.67623694467568 6 24.794885222624831
v 416.67623694467568 21 24.794885222624831
v 371.67623694467568 21 24.794885222624831
v 416.67623694467568 6 21.794885222624831
v 416.67623694467568 21 21.794885222624831
v 371.67623694467568 6 21.794885222624831
v 371.67623694467568 21 21.794885222624831
vn 0 0 1
vn 0 0 1
vn 0 0 1
vn 0 0 1
vn 1 0 0
vn 1 0 0
vn 1 0 0
vn 1 0 0
vn 0 0 -1
vn 0 0 -1
vn 0 0 -1
vn 0 0 -1
vn -1 0 0
vn -1 0 0
vn -1 0 0
vn -1 0 0
vn 0 -1 0
vn 0 -1 0
vn 0 -1 0
vn 0 -1 0
vn 0 1 0
vn 0 1 0
vn 0 1 0
vn 0 1 0
f 25//73 26//74 27//75 28//76
f 26//77 29//78 30//79 27//80
f 29//81 31//82 32//83 30//84
f 31//85 25//86 28//87 32//88
f 25//89 31//90 29//91 26//92
f 28//93 27//94 30//95 32//96
g object_5
v 371.67623694467568 0 -35.205114777375172
v 371.67623694467568 24 -35.205114777375172
v 362.67623694467568 24 -35.205114777375172
v 362.67623694467568 0 -35.205114777375172
v 362.67623694467568 24 -50.205114777375172
v 362.67623694467568 0 -50.205114777375172
v 371.67623694467568 24 -50.205114777375172
v 371.67623694467568 0 -50.205114777375172
vn 0 0 1
vn 0 0 1
vn 0 0 1
vn 0 0 1
vn -1 0 0
vn -1 0 0
vn -1 0 0
vn -1 0 0
vn 0 0 -1
vn 0 0 -1
vn 0 0 -1
vn 0 0 -1
vn 1 0 0
vn 1 0 0
vn 1 0 0
vn 1 0 0
vn 0 -1 0
vn 0 -1 0
vn 0 -1 0
vn 0 -1 0
vn 0 1 0
vn 0 1 0
vn 0 1 0
vn 0 1 0
f 33//97 34//98 35//99 36//100
f 36//101 35//102 37//103 38//104
f 38//105 37//106 39//107 40//108
f 40//109 39//110 34//111 33//112
f 33//113 36//114 38//115 40//116
f 34//117 39//118 37//119 35//120
g object_6
v 371.67623694467568 0 9.7948852226248313
v 362.67623694467568 0 9.7948852226248313
v 362.67623694467568 24 9.7948852226248313
v 371.67623694467568 24 9.7948852226248313
v 362.67623694467568 0 24.794885222624831
v 362.67623694467568 24 24.794885222624831
v 371.67623694467568 0 24.794885222624831
v 371.67623694467568 24 24.794885222624831
vn 0 0 -1
vn 0 0 -1
vn 0 0 -1
vn 0 0 -1
vn -1 0 0
vn -1 0 0
vn -1 0 0
vn -1 0 0
vn 0 0 1
vn 0 0 1
vn 0 0 1
vn 0 0 1
vn 1 0 0
vn 1 0 0
vn 1 0 0
vn 1 0 0
vn 0 -1 0
vn 0 -1 0
vn 0 -1 0
vn 0 -1 0
vn 0 1 0
vn 0 1 0
vn 0 1 0
vn 0 1 0
f 41//121 42//122 43//123 44//124
f 42//125 45//126 46//127 43//128
f 45//129 47//130 48//131 46//132
f 47//133 41//134 44//135 48//136
f 41//137 47//138 45//139 42//140
f 44//141 43//142 46//143 48//144
g object_7
v 365.67623528843063 6 9.7948852226248349
v 368.67623528843063 6 9.7948852226248349
v 368.67623528843063 21 9.7948852226248313
v 365.67623528843063 21 9.7948852226248313
v 368.67623528843063 6 -35.205114777375172
v 368.67623528843063 21 -35.205114777375172
v 365.67623528843063 6 -35.205114777375172
v 365.67623528843063 21 -35.205114777375172
vn 0 0 1
vn 0 0 1
vn 0 0 1
vn 0 0 1
vn 1 0 0
vn 1 0 0
vn 1 0 0
vn 1 0 0
vn 0 0 -1
vn 0 0 -1
vn 0 0 -1
vn 0 0 -1
vn -1 0 0
vn -1 0 0
vn -1 0 0
vn -1 0 0
vn 0 -1 0
vn 0 -1 0
vn 0 -1 0
vn 0 -1 0
vn 0 1 0
vn 0 1 0
vn 0 1 0
vn 0 1 0
f 49//145 50//146 51//147 52//148
f 50//149 53//150 54//151 51//152
f 53//153 55//154 56//155 54//156
f 55//157 49//158 52//159 56//160
f 49//161 55//162 53//163 50//164
f 52//165 51//166 54//167 56//168
