# Rhino

g object_1
v 377.67623528843058 0 33.794885222624771
v 377.67623528843058 0 23.294885222624771
v 367.17623528843063 0 23.294885222624771
v 367.17623528843063 0 33.794885222624771
v 367.17623528843063 -3 33.794885222624771
v 377.67623528843058 -3 33.794885222624771
v 367.17623528843063 -3 23.294885222624771
v 377.67623528843058 -3 23.294885222624771
vn 0 1 0
vn 0 1 0
vn 0 1 0
vn 0 1 0
vn 0 0 1
vn 0 0 1
vn 0 0 1
vn 0 0 1
vn -1 0 0
vn -1 0 0
vn -1 0 0
vn -1 0 0
vn 0 0 -1
vn 0 0 -1
vn 0 0 -1
vn 0 0 -1
vn 1 0 0
vn 1 0 0
vn 1 0 0
vn 1 0 0
vn 0 -1 0
vn 0 -1 0
vn 0 -1 0
vn 0 -1 0
f 1//1 2//2 3//3 4//4
f 1//5 4//6 5//7 6//8
f 4//9 3//10 7//11 5//12
f 3//13 2//14 8//15 7//16
f 2//17 1//18 6//19 8//20
f 6//21 5//22 7//23 8//24
g object_2
v 356.67623528843063 0 12.794885222624771
v 356.67623528843063 0 23.294885222624771
v 367.17623528843063 0 23.294885222624771
v 367.17623528843063 0 12.794885222624771
v 367.17623528843063 -3 12.794885222624771
v 356.67623528843063 -3 12.794885222624771
v 367.17623528843063 -3 23.294885222624771
v 356.67623528843063 -3 23.294885222624771
vn 0 1 0
vn 0 1 0
vn 0 1 0
vn 0 1 0
vn 0 0 -1
vn 0 0 -1
vn 0 0 -1
vn 0 0 -1
vn 1 0 0
vn 1 0 0
vn 1 0 0
vn 1 0 0
vn 0 0 1
vn 0 0 1
vn 0 0 1
vn 0 0 1
vn -1 0 0
vn -1 0 0
vn -1 0 0
vn -1 0 0
vn 0 -1 0
vn 0 -1 0
vn 0 -1 0
vn 0 -1 0
f 9//25 10//26 11//27 12//28
f 9//29 12//30 13//31 14//32
f 12//33 11//34 15//35 13//36
f 11//37 10//38 16//39 15//40
f 10//41 9//42 14//43 16//44
f 14//45 13//46 15//47 16//48
g object_3
v 377.67623528843058 0 7.2948852226248277
v 367.17623528843063 0 7.2948852226248277
v 367.17623528843063 0 12.794885222624771
v 377.67623528843058 0 12.794885222624771
v 377.67623528843058 -3 12.794885222624771
v 377.67623528843058 -3 7.2948852226248277
v 367.17623528843063 -3 12.794885222624771
v 367.17623528843063 -3 7.2948852226248277
vn 0 1 0
vn 0 1 0
vn 0 1 0
vn 0 1 0
vn 1 0 0
vn 1 0 0
vn 1 0 0
vn 1 0 0
vn 0 0 1
vn 0 0 1
vn 0 0 1
vn 0 0 1
vn -1 0 0
vn -1 0 0
vn -1 0 0
vn -1 0 0
vn 0 0 -1
vn 0 0 -1
vn 0 0 -1
vn 0 0 -1
vn 0 -1 0
vn 0 -1 0
vn 0 -1 0
vn 0 -1 0
f 17//49 18//50 19//51 20//52
f 17//53 20//54 21//55 22//56
f 20//57 19//58 23//59 21//60
f 19//61 18//62 24//63 23//64
f 18//65 17//66 22//67 24//68
f 22//69 21//70 23//71 24//72
g object_4
v 377.67623528843058 0 12.794885222624856
v 377.67623528843058 0 23.294885222624856
v 384.17623694467568 0 23.294885222624856
v 384.17623694467568 0 12.794885222624856
v 384.17623694467568 -3 12.794885222624856
v 377.67623528843058 -3 12.794885222624856
v 384.17623694467568 -3 23.294885222624856
v 377.67623528843058 -3 23.294885222624856
vn 0 1 0
vn 0 1 0
vn 0 1 0
vn 0 1 0
vn 0 0 -1
vn 0 0 -1
vn 0 0 -1
vn 0 0 -1
vn 1 0 0
vn 1 0 0
vn 1 0 0
vn 1 0 0
vn 0 0 1
vn 0 0 1
vn 0 0 1
vn 0 0 1
vn -1 0 0
vn -1 0 0
vn -1 0 0
vn -1 0 0
vn 0 -1 0
vn 0 -1 0
vn 0 -1 0
vn 0 -1 0
f 25//73 26//74 27//75 28//76
f 25//77 28//78 29//79 30//80
f 28//81 27//82 31//83 29//84
f 27//85 26//86 32//87 31//88
f 26//89 25//90 30//91 32//92
f 30//93 29//94 31//95 32//96
g object_5
v 377.67623528843058 0 -38.205114777375144
v 377.67623528843058 0 -48.705114777375144
v 367.17623528843063 0 -48.705114777375144
v 367.17623528843063 0 -38.205114777375144
v 367.17623528843063 -3 -38.205114777375144
v 377.67623528843058 -3 -38.205114777375144
v 367.17623528843063 -3 -48.705114777375144
v 377.67623528843058 -3 -48.705114777375144
vn 0 1 0
vn 0 1 0
vn 0 1 0
vn 0 1 0
vn 0 0 1
vn 0 0 1
vn 0 0 1
vn 0 0 1
vn -1 0 0
vn -1 0 0
vn -1 0 0
vn -1 0 0
vn 0 0 -1
vn 0 0 -1
vn 0 0 -1
vn 0 0 -1
vn 1 0 0
vn 1 0 0
vn 1 0 0
vn 1 0 0
vn 0 -1 0
vn 0 -1 0
vn 0 -1 0
vn 0 -1 0
f 33//97 34//98 35//99 36//100
f 33//101 36//102 37//103 38//104
f 36//105 35//106 39//107 37//108
f 35//109 34//110 40//111 39//112
f 34//113 33//114 38//115 40//116
f 38//117 37//118 39//119 40//120
g object_6
v 356.67623528843063 0 -59.205114777375115
v 356.67623528843063 0 -48.705114777375144
v 367.17623528843063 0 -48.705114777375144
v 367.17623528843063 0 -59.205114777375115
v 367.17623528843063 -3 -59.205114777375115
v 356.67623528843063 -3 -59.205114777375115
v 367.17623528843063 -3 -48.705114777375144
v 356.67623528843063 -3 -48.705114777375144
vn 0 1 0
vn 0 1 0
vn 0 1 0
vn 0 1 0
vn 0 0 -1
vn 0 0 -1
vn 0 0 -1
vn 0 0 -1
vn 1 0 0
vn 1 0 0
vn 1 0 0
vn 1 0 0
vn 0 0 1
vn 0 0 1
vn 0 0 1
vn 0 0 1
vn -1 0 0
vn -1 0 0
vn -1 0 0
vn -1 0 0
vn 0 -1 0
vn 0 -1 0
vn 0 -1 0
vn 0 -1 0
f 41//121 42//122 43//123 44//124
f 41//125 44//126 45//127 46//128
f 44//129 43//130 47//131 45//132
f 43//133 42//134 48//135 47//136
f 42//137 41//138 46//139 48//140
f 46//141 45//142 47//143 48//144
g object_7
v 356.67623528843063 0 -38.205114777375144
v 356.67623528843063 0 -48.705114777375144
v 350.17623694467568 0 -48.705114777375144
v 350.17623694467568 0 -38.205114777375144
v 350.17623694467568 -3 -38.205114777375144
v 356.67623528843063 -3 -38.205114777375144
v 350.17623694467568 -3 -48.705114777375144
v 356.67623528843063 -3 -48.705114777375144
vn 0 1 0
vn 0 1 0
vn 0 1 0
vn 0 1 0
vn 0 0 1
vn 0 0 1
vn 0 0 1
vn 0 0 1
vn -1 0 0
vn -1 0 0
vn -1 0 0
vn -1 0 0
vn 0 0 -1
vn 0 0 -1
vn 0 0 -1
vn 0 0 -1
vn 1 0 0
vn 1 0 0
vn 1 0 0
vn 1 0 0
vn 0 -1 0
vn 0 -1 0
vn 0 -1 0
vn 0 -1 0
f 49//145 50//146 51//147 52//148
f 49//149 52//150 53//151 54//152
f 52//153 51//154 55//155 53//156
f 51//157 50//158 56//159 55//160
f 50//161 49//162 54//163 56//164
f 54//165 53//166 55//167 56//168
g object_8
v 356.67623528843063 0 -32.705114777375172
v 367.17623528843063 0 -32.705114777375172
v 367.17623528843063 0 -38.205114777375144
v 356.67623528843063 0 -38.205114777375144
v 356.67623528843063 -3 -38.205114777375144
v 356.67623528843063 -3 -32.705114777375172
v 367.17623528843063 -3 -38.205114777375144
v 367.17623528843063 -3 -32.705114777375172
vn 0 1 0
vn 0 1 0
vn 0 1 0
vn 0 1 0
vn -1 0 0
vn -1 0 0
vn -1 0 0
vn -1 0 0
vn 0 0 -1
vn 0 0 -1
vn 0 0 -1
vn 0 0 -1
vn 1 0 0
vn 1 0 0
vn 1 0 0
vn 1 0 0
vn 0 0 1
vn 0 0 1
vn 0 0 1
vn 0 0 1
vn 0 -1 0
vn 0 -1 0
vn 0 -1 0
vn 0 -1 0
f 57//169 58//170 59//171 60//172
f 57//173 60//174 61//175 62//176
f 60//177 59//178 63//179 61//180
f 59//181 58//182 64//183 63//184
f 58//185 57//186 62//187 64//188
f 62//189 61//190 63//191 64//192
g object_9
v 320.17623694467568 0 -38.205114777375144
v 320.17623694467568 0 -48.705114777375144
v 308.67623694467568 0 -48.705114777375144
v 308.67623694467568 0 -38.205114777375144
v 308.67623694467568 -3 -38.205114777375144
v 320.17623694467568 -3 -38.205114777375144
v 308.67623694467568 -3 -48.705114777375144
v 320.17623694467568 -3 -48.705114777375144
vn 0 1 0
vn 0 1 0
vn 0 1 0
vn 0 1 0
vn 0 0 1
vn 0 0 1
vn 0 0 1
vn 0 0 1
vn -1 0 0
vn -1 0 0
vn -1 0 0
vn -1 0 0
vn 0 0 -1
vn 0 0 -1
vn 0 0 -1
vn 0 0 -1
vn 1 0 0
vn 1 0 0
vn 1 0 0
vn 1 0 0
vn 0 -1 0
vn 0 -1 0
vn 0 -1 0
vn 0 -1 0
f 65//193 66//194 67//195 68//196
f 65//197 68//198 69//199 70//200
f 68//201 67//202 71//203 69//204
f 67//205 66//206 72//207 71//208
f 66//209 65//210 70//211 72//212
f 70//213 69//214 71//215 72//216
g object_10
v 414.17623694467568 0 12.794885222624856
v 414.17623694467568 0 23.294885222624856
v 425.67623694467568 0 23.294885222624856
v 425.67623694467568 0 12.794885222624856
v 425.67623694467568 -3 12.794885222624856
v 414.17623694467568 -3 12.794885222624856
v 425.67623694467568 -3 23.294885222624856
v 414.17623694467568 -3 23.294885222624856
vn 0 1 0
vn 0 1 0
vn 0 1 0
vn 0 1 0
vn 0 0 -1
vn 0 0 -1
vn 0 0 -1
vn 0 0 -1
vn 1 0 0
vn 1 0 0
vn 1 0 0
vn 1 0 0
vn 0 0 1
vn 0 0 1
vn 0 0 1
vn 0 0 1
vn -1 0 0
vn -1 0 0
vn -1 0 0
vn -1 0 0
vn 0 -1 0
vn 0 -1 0
vn 0 -1 0
vn 0 -1 0
f 73//217 74//218 75//219 76//220
f 73//221 76//222 77//223 78//224
f 76//225 75//226 79//227 77//228
f 75//229 74//230 80//231 79//232
f 74//233 73//234 78//235 80//236
f 78//237 77//238 79//239 80//240
g object_11
v 394.17623694467568 0 12.794885222624856
v 394.17623694467568 0 23.294885222624856
v 404.17623694467568 0 23.294885222624856
v 404.17623694467568 0 12.794885222624856
v 404.17623694467568 -3 12.794885222624856
v 394.17623694467568 -3 12.794885222624856
v 404.17623694467568 -3 23.294885222624856
v 394.17623694467568 -3 23.294885222624856
vn 0 1 0
vn 0 1 0
vn 0 1 0
vn 0 1 0
vn 0 0 -1
vn 0 0 -1
vn 0 0 -1
vn 0 0 -1
vn 1 0 0
vn 1 0 0
vn 1 0 0
vn 1 0 0
vn 0 0 1
vn 0 0 1
vn 0 0 1
vn 0 0 1
vn -1 0 0
vn -1 0 0
vn -1 0 0
vn -1 0 0
vn 0 -1 0
vn 0 -1 0
vn 0 -1 0
vn 0 -1 0
f 81//241 82//242 83//243 84//244
f 81//245 84//246 85//247 86//248
f 84//249 83//250 87//251 85//252
f 83//253 82//254 88//255 87//256
f 82//257 81//258 86//259 88//260
f 86//261 85//262 87//263 88//264
g object_12
v 394.17623694467568 0 33.794885222624828
v 394.17623694467568 0 23.294885222624856
v 384.17623694467568 0 23.294885222624856
v 384.17623694467568 0 33.794885222624828
v 384.17623694467568 -3 33.794885222624828
v 394.17623694467568 -3 33.794885222624828
v 384.17623694467568 -3 23.294885222624856
v 394.17623694467568 -3 23.294885222624856
vn 0 1 0
vn 0 1 0
vn 0 1 0
vn 0 1 0
vn 0 0 1
vn 0 0 1
vn 0 0 1
vn 0 0 1
vn -1 0 0
vn -1 0 0
vn -1 0 0
vn -1 0 0
vn 0 0 -1
vn 0 0 -1
vn 0 0 -1
vn 0 0 -1
vn 1 0 0
vn 1 0 0
vn 1 0 0
vn 1 0 0
vn 0 -1 0
vn 0 -1 0
vn 0 -1 0
vn 0 -1 0
f 89//265 90//266 91//267 92//268
f 89//269 92//270 93//271 94//272
f 92//273 91//274 95//275 93//276
f 91//277 90//278 96//279 95//280
f 90//281 89//282 94//283 96//284
f 94//285 93//286 95//287 96//288
g object_13
v 414.17623694467568 0 33.794885222624828
v 414.17623694467568 0 23.294885222624856
v 404.17623694467568 0 23.294885222624856
v 404.17623694467568 0 33.794885222624828
v 404.17623694467568 -3 33.794885222624828
v 414.17623694467568 -3 33.794885222624828
v 404.17623694467568 -3 23.294885222624856
v 414.17623694467568 -3 23.294885222624856
vn 0 1 0
vn 0 1 0
vn 0 1 0
vn 0 1 0
vn 0 0 1
vn 0 0 1
vn 0 0 1
vn 0 0 1
vn -1 0 0
vn -1 0 0
vn -1 0 0
vn -1 0 0
vn 0 0 -1
vn 0 0 -1
vn 0 0 -1
vn 0 0 -1
vn 1 0 0
vn 1 0 0
vn 1 0 0
vn 1 0 0
vn 0 -1 0
vn 0 -1 0
vn 0 -1 0
vn 0 -1 0
f 97//289 98//290 99//291 100//292
f 97//293 100//294 101//295 102//296
f 100//297 99//298 103//299 101//300
f 99//301 98//302 104//303 103//304
f 98//305 97//306 102//307 104//308
f 102//309 101//310 103//311 104//312
g object_14
v 377.67623528843058 0 -2.7051147773751723
v 367.17623528843063 0 -2.7051147773751723
v 367.17623528843063 0 7.2948852226248277
v 377.67623528843058 0 7.2948852226248277
v 377.67623528843058 -3 7.2948852226248277
v 377.67623528843058 -3 -2.7051147773751723
v 367.17623528843063 -3 7.2948852226248277
v 367.17623528843063 -3 -2.7051147773751723
vn 0 1 0
vn 0 1 0
vn 0 1 0
vn 0 1 0
vn 1 0 0
vn 1 0 0
vn 1 0 0
vn 1 0 0
vn 0 0 1
vn 0 0 1
vn 0 0 1
vn 0 0 1
vn -1 0 0
vn -1 0 0
vn -1 0 0
vn -1 0 0
vn 0 0 -1
vn 0 0 -1
vn 0 0 -1
vn 0 0 -1
vn 0 -1 0
vn 0 -1 0
vn 0 -1 0
vn 0 -1 0
f 105//313 106//314 107//315 108//316
f 105//317 108//318 109//319 110//320
f 108//321 107//322 111//323 109//324
f 107//325 106//326 112//327 111//328
f 106//329 105//330 110//331 112//332
f 110//333 109//334 111//335 112//336
g object_15
v 377.67623528843058 0 -12.705114777375172
v 367.17623528843063 0 -12.705114777375172
v 367.17623528843063 0 -2.7051147773751723
v 377.67623528843058 0 -2.7051147773751723
v 377.67623528843058 -3 -2.7051147773751723
v 377.67623528843058 -3 -12.705114777375172
v 367.17623528843063 -3 -2.7051147773751723
v 367.17623528843063 -3 -12.705114777375172
vn 0 1 0
vn 0 1 0
vn 0 1 0
vn 0 1 0
vn 1 0 0
vn 1 0 0
vn 1 0 0
vn 1 0 0
vn 0 0 1
vn 0 0 1
vn 0 0 1
vn 0 0 1
vn -1 0 0
vn -1 0 0
vn -1 0 0
vn -1 0 0
vn 0 0 -1
vn 0 0 -1
vn 0 0 -1
vn 0 0 -1
vn 0 -1 0
vn 0 -1 0
vn 0 -1 0
vn 0 -1 0
f 113//337 114//338 115//339 116//340
f 113//341 116//342 117//343 118//344
f 116//345 115//346 119//347 117//348
f 115//349 114//350 120//351 119//352
f 114//353 113//354 118//355 120//356
f 118//357 117//358 119//359 120//360
g object_16
v 377.67623528843058 0 -22.705114777375172
v 367.17623528843063 0 -22.705114777375172
v 367.17623528843063 0 -12.705114777375172
v 377.67623528843058 0 -12.705114777375172
v 377.67623528843058 -3 -12.705114777375172
v 377.67623528843058 -3 -22.705114777375172
v 367.17623528843063 -3 -12.705114777375172
v 367.17623528843063 -3 -22.705114777375172
vn 0 1 0
vn 0 1 0
vn 0 1 0
vn 0 1 0
vn 1 0 0
vn 1 0 0
vn 1 0 0
vn 1 0 0
vn 0 0 1
vn 0 0 1
vn 0 0 1
vn 0 0 1
vn -1 0 0
vn -1 0 0
vn -1 0 0
vn -1 0 0
vn 0 0 -1
vn 0 0 -1
vn 0 0 -1
vn 0 0 -1
vn 0 -1 0
vn 0 -1 0
vn 0 -1 0
vn 0 -1 0
f 121//361 122//362 123//363 124//364
f 121//365 124//366 125//367 126//368
f 124//369 123//370 127//371 125//372
f 123//373 122//374 128//375 127//376
f 122//377 121//378 126//379 128//380
f 126//381 125//382 127//383 128//384
g object_17
v 377.67623528843058 0 -32.705114777375172
v 367.17623528843063 0 -32.705114777375172
v 367.17623528843063 0 -22.705114777375172
v 377.67623528843058 0 -22.705114777375172
v 377.67623528843058 -3 -22.705114777375172
v 377.67623528843058 -3 -32.705114777375172
v 367.17623528843063 -3 -22.705114777375172
v 367.17623528843063 -3 -32.705114777375172
vn 0 1 0
vn 0 1 0
vn 0 1 0
vn 0 1 0
vn 1 0 0
vn 1 0 0
vn 1 0 0
vn 1 0 0
vn 0 0 1
vn 0 0 1
vn 0 0 1
vn 0 0 1
vn -1 0 0
vn -1 0 0
vn -1 0 0
vn -1 0 0
vn 0 0 -1
vn 0 0 -1
vn 0 0 -1
vn 0 0 -1
vn 0 -1 0
vn 0 -1 0
vn 0 -1 0
vn 0 -1 0
f 129//385 130//386 131//387 132//388
f 129//389 132//390 133//391 134//392
f 132//393 131//394 135//395 133//396
f 131//397 130//398 136//399 135//400
f 130//401 129//402 134//403 136//404
f 134//405 133//406 135//407 136//408
g object_18
v 320.17623694467568 0 -59.205114777375115
v 320.17623694467568 0 -48.705114777375144
v 330.17623694467568 0 -48.705114777375144
v 330.17623694467568 0 -59.205114777375115
v 330.17623694467568 -3 -59.205114777375115
v 320.17623694467568 -3 -59.205114777375115
v 330.17623694467568 -3 -48.705114777375144
v 320.17623694467568 -3 -48.705114777375144
vn 0 1 0
vn 0 1 0
vn 0 1 0
vn 0 1 0
vn 0 0 -1
vn 0 0 -1
vn 0 0 -1
vn 0 0 -1
vn 1 0 0
vn 1 0 0
vn 1 0 0
vn 1 0 0
vn 0 0 1
vn 0 0 1
vn 0 0 1
vn 0 0 1
vn -1 0 0
vn -1 0 0
vn -1 0 0
vn -1 0 0
vn 0 -1 0
vn 0 -1 0
vn 0 -1 0
vn 0 -1 0
f 137//409 138//410 139//411 140//412
f 137//413 140//414 141//415 142//416
f 140//417 139//418 143//419 141//420
f 139//421 138//422 144//423 143//424
f 138//425 137//426 142//427 144//428
f 142//429 141//430 143//431 144//432
g object_19
v 340.17623694467568 0 -59.205114777375115
v 340.17623694467568 0 -48.705114777375144
v 350.17623694467568 0 -48.705114777375144
v 350.17623694467568 0 -59.205114777375115
v 350.17623694467568 -3 -59.205114777375115
v 340.17623694467568 -3 -59.205114777375115
v 350.17623694467568 -3 -48.705114777375144
v 340.17623694467568 -3 -48.705114777375144
vn 0 1 0
vn 0 1 0
vn 0 1 0
vn 0 1 0
vn 0 0 -1
vn 0 0 -1
vn 0 0 -1
vn 0 0 -1
vn 1 0 0
vn 1 0 0
vn 1 0 0
vn 1 0 0
vn 0 0 1
vn 0 0 1
vn 0 0 1
vn 0 0 1
vn -1 0 0
vn -1 0 0
vn -1 0 0
vn -1 0 0
vn 0 -1 0
vn 0 -1 0
vn 0 -1 0
vn 0 -1 0
f 145//433 146//434 147//435 148//436
f 145//437 148//438 149//439 150//440
f 148//441 147//442 151//443 149//444
f 147//445 146//446 152//447 151//448
f 146//449 145//450 150//451 152//452
f 150//453 149//454 151//455 152//456
g object_20
v 340.17623694467568 0 -38.205114777375144
v 340.17623694467568 0 -48.705114777375144
v 330.17623694467568 0 -48.705114777375144
v 330.17623694467568 0 -38.205114777375144
v 330.17623694467568 -3 -38.205114777375144
v 340.17623694467568 -3 -38.205114777375144
v 330.17623694467568 -3 -48.705114777375144
v 340.17623694467568 -3 -48.705114777375144
vn 0 1 0
vn 0 1 0
vn 0 1 0
vn 0 1 0
vn 0 0 1
vn 0 0 1
vn 0 0 1
vn 0 0 1
vn -1 0 0
vn -1 0 0
vn -1 0 0
vn -1 0 0
vn 0 0 -1
vn 0 0 -1
vn 0 0 -1
vn 0 0 -1
vn 1 0 0
vn 1 0 0
vn 1 0 0
vn 1 0 0
vn 0 -1 0
vn 0 -1 0
vn 0 -1 0
vn 0 -1 0
f 153//457 154//458 155//459 156//460
f 153//461 156//462 157//463 158//464
f 156//465 155//466 159//467 157//468
f 155//469 154//470 160//471 159//472
f 154//473 153//474 158//475 160//476
f 158//477 157//478 159//479 160//480
g object_21
v 377.67623528843058 0 12.794885222624771
v 367.17623528843063 0 12.794885222624771
v 367.17623528843063 0 23.294885222624771
v 377.67623528843058 0 23.294885222624771
v 377.67623528843058 -3 12.794885222624771
v 367.17623528843063 -3 12.794885222624771
v 367.17623528843063 -3 23.294885222624771
v 377.67623528843058 -3 23.294885222624771
vn 0 1 0
vn 0 1 0
vn 0 1 0
vn 0 1 0
vn 0 0 -1
vn 0 0 -1
vn 0 0 -1
vn 0 0 -1
vn -1 0 0
vn -1 0 0
vn -1 0 0
vn -1 0 0
vn 0 0 1
vn 0 0 1
vn 0 0 1
vn 0 0 1
vn 1 0 0
vn 1 0 0
vn 1 0 0
vn 1 0 0
vn 0 -1 0
vn 0 -1 0
vn 0 -1 0
vn 0 -1 0
f 161//481 162//482 163//483 164//484
f 161//485 165//486 166//487 162//488
f 162//489 166//490 167//491 163//492
f 163//493 167//494 168//495 164//496
f 164//497 168//498 165//499 161//500
f 165//501 168//502 167//503 166//504
g object_22
v 356.67623528843063 0 33.794885222624771
v 367.17623528843063 0 33.794885222624771
v 367.17623528843063 0 23.294885222624771
v 356.67623528843063 0 23.294885222624771
v 356.67623528843063 -3 33.794885222624771
v 367.17623528843063 -3 33.794885222624771
v 367.17623528843063 -3 23.294885222624771
v 356.67623528843063 -3 23.294885222624771
vn 0 1 0
vn 0 1 0
vn 0 1 0
vn 0 1 0
vn 0 0 1
vn 0 0 1
vn 0 0 1
vn 0 0 1
vn 1 0 0
vn 1 0 0
vn 1 0 0
vn 1 0 0
vn 0 0 -1
vn 0 0 -1
vn 0 0 -1
vn 0 0 -1
vn -1 0 0
vn -1 0 0
vn -1 0 0
vn -1 0 0
vn 0 -1 0
vn 0 -1 0
vn 0 -1 0
vn 0 -1 0
f 169//505 170//506 171//507 172//508
f 169//509 173//510 174//511 170//512
f 170//513 174//514 175//515 171//516
f 171//517 175//518 176//519 172//520
f 172//521 176//522 173//523 169//524
f 173//525 176//526 175//527 174//528
g object_23
v 356.67623528843063 0 7.2948852226248277
v 356.67623528843063 0 12.794885222624771
v 367.17623528843063 0 12.794885222624771
v 367.17623528843063 0 7.2948852226248277
v 356.67623528843063 -3 7.2948852226248277
v 356.67623528843063 -3 12.794885222624771
v 367.17623528843063 -3 12.794885222624771
v 367.17623528843063 -3 7.2948852226248277
vn 0 1 0
vn 0 1 0
vn 0 1 0
vn 0 1 0
vn -1 0 0
vn -1 0 0
vn -1 0 0
vn -1 0 0
vn 0 0 1
vn 0 0 1
vn 0 0 1
vn 0 0 1
vn 1 0 0
vn 1 0 0
vn 1 0 0
vn 1 0 0
vn 0 0 -1
vn 0 0 -1
vn 0 0 -1
vn 0 0 -1
vn 0 -1 0
vn 0 -1 0
vn 0 -1 0
vn 0 -1 0
f 177//529 178//530 179//531 180//532
f 177//533 181//534 182//535 178//536
f 178//537 182//538 183//539 179//540
f 179//541 183//542 184//543 180//544
f 180//545 184//546 181//547 177//548
f 181//549 184//550 183//551 182//552
g object_24
v 377.67623528843058 0 33.794885222624828
v 384.17623694467568 0 33.794885222624828
v 384.17623694467568 0 23.294885222624856
v 377.67623528843058 0 23.294885222624856
v 377.67623528843058 -3 33.794885222624828
v 384.17623694467568 -3 33.794885222624828
v 384.17623694467568 -3 23.294885222624856
v 377.67623528843058 -3 23.294885222624856
vn 0 1 0
vn 0 1 0
vn 0 1 0
vn 0 1 0
vn 0 0 1
vn 0 0 1
vn 0 0 1
vn 0 0 1
vn 1 0 0
vn 1 0 0
vn 1 0 0
vn 1 0 0
vn 0 0 -1
vn 0 0 -1
vn 0 0 -1
vn 0 0 -1
vn -1 0 0
vn -1 0 0
vn -1 0 0
vn -1 0 0
vn 0 -1 0
vn 0 -1 0
vn 0 -1 0
vn 0 -1 0
f 185//553 186//554 187//555 188//556
f 185//557 189//558 190//559 186//560
f 186//561 190//562 191//563 187//564
f 187//565 191//566 192//567 188//568
f 188//569 192//570 189//571 185//572
f 189//573 192//574 191//575 190//576
g object_25
v 377.67623528843058 0 -59.205114777375115
v 367.17623528843063 0 -59.205114777375115
v 367.17623528843063 0 -48.705114777375144
v 377.67623528843058 0 -48.705114777375144
v 377.67623528843058 -3 -59.205114777375115
v 367.17623528843063 -3 -59.205114777375115
v 367.17623528843063 -3 -48.705114777375144
v 377.67623528843058 -3 -48.705114777375144
vn 0 1 0
vn 0 1 0
vn 0 1 0
vn 0 1 0
vn 0 0 -1
vn 0 0 -1
vn 0 0 -1
vn 0 0 -1
vn -1 0 0
vn -1 0 0
vn -1 0 0
vn -1 0 0
vn 0 0 1
vn 0 0 1
vn 0 0 1
vn 0 0 1
vn 1 0 0
vn 1 0 0
vn 1 0 0
vn 1 0 0
vn 0 -1 0
vn 0 -1 0
vn 0 -1 0
vn 0 -1 0
f 193//577 194//578 195//579 196//580
f 193//581 197//582 198//583 194//584
f 194//585 198//586 199//587 195//588
f 195//589 199//590 200//591 196//592
f 196//593 200//594 197//595 193//596
f 197//597 200//598 199//599 198//600
g object_26
v 356.67623528843063 0 -38.205114777375144
v 367.17623528843063 0 -38.205114777375144
v 367.17623528843063 0 -48.705114777375144
v 356.67623528843063 0 -48.705114777375144
v 356.67623528843063 -3 -38.205114777375144
v 367.17623528843063 -3 -38.205114777375144
v 367.17623528843063 -3 -48.705114777375144
v 356.67623528843063 -3 -48.705114777375144
vn 0 1 0
vn 0 1 0
vn 0 1 0
vn 0 1 0
vn 0 0 1
vn 0 0 1
vn 0 0 1
vn 0 0 1
vn 1 0 0
vn 1 0 0
vn 1 0 0
vn 1 0 0
vn 0 0 -1
vn 0 0 -1
vn 0 0 -1
vn 0 0 -1
vn -1 0 0
vn -1 0 0
vn -1 0 0
vn -1 0 0
vn 0 -1 0
vn 0 -1 0
vn 0 -1 0
vn 0 -1 0
f 201//601 202//602 203//603 204//604
f 201//605 205//606 206//607 202//608
f 202//609 206//610 207//611 203//612
f 203//613 207//614 208//615 204//616
f 204//617 208//618 205//619 201//620
f 205//621 208//622 207//623 206//624
g object_27
v 356.67623528843063 0 -59.205114777375115
v 350.17623694467568 0 -59.205114777375115
v 350.17623694467568 0 -48.705114777375144
v 356.67623528843063 0 -48.705114777375144
v 356.67623528843063 -3 -59.205114777375115
v 350.17623694467568 -3 -59.205114777375115
v 350.17623694467568 -3 -48.705114777375144
v 356.67623528843063 -3 -48.705114777375144
vn 0 1 0
vn 0 1 0
vn 0 1 0
vn 0 1 0
vn 0 0 -1
vn 0 0 -1
vn 0 0 -1
vn 0 0 -1
vn -1 0 0
vn -1 0 0
vn -1 0 0
vn -1 0 0
vn 0 0 1
vn 0 0 1
vn 0 0 1
vn 0 0 1
vn 1 0 0
vn 1 0 0
vn 1 0 0
vn 1 0 0
vn 0 -1 0
vn 0 -1 0
vn 0 -1 0
vn 0 -1 0
f 209//625 210//626 211//627 212//628
f 209//629 213//630 214//631 210//632
f 210//633 214//634 215//635 211//636
f 211//637 215//638 216//639 212//640
f 212//641 216//642 213//643 209//644
f 213//645 216//646 215//647 214//648
g object_28
v 377.67623528843058 0 -32.705114777375172
v 377.67623528843058 0 -38.205114777375144
v 367.17623528843063 0 -38.205114777375144
v 367.17623528843063 0 -32.705114777375172
v 377.67623528843058 -3 -32.705114777375172
v 377.67623528843058 -3 -38.205114777375144
v 367.17623528843063 -3 -38.205114777375144
v 367.17623528843063 -3 -32.705114777375172
vn 0 1 0
vn 0 1 0
vn 0 1 0
vn 0 1 0
vn 1 0 0
vn 1 0 0
vn 1 0 0
vn 1 0 0
vn 0 0 -1
vn 0 0 -1
vn 0 0 -1
vn 0 0 -1
vn -1 0 0
vn -1 0 0
vn -1 0 0
vn -1 0 0
vn 0 0 1
vn 0 0 1
vn 0 0 1
vn 0 0 1
vn 0 -1 0
vn 0 -1 0
vn 0 -1 0
vn 0 -1 0
f 217//649 218//650 219//651 220//652
f 217//653 221//654 222//655 218//656
f 218//657 222//658 223//659 219//660
f 219//661 223//662 224//663 220//664
f 220//665 224//666 221//667 217//668
f 221//669 224//670 223//671 222//672
g object_29
v 320.17623694467568 0 -59.205114777375115
v 308.67623694467568 0 -59.205114777375115
v 308.67623694467568 0 -48.705114777375144
v 320.17623694467568 0 -48.705114777375144
v 320.17623694467568 -3 -59.205114777375115
v 308.67623694467568 -3 -59.205114777375115
v 308.67623694467568 -3 -48.705114777375144
v 320.17623694467568 -3 -48.705114777375144
vn 0 1 0
vn 0 1 0
vn 0 1 0
vn 0 1 0
vn 0 0 -1
vn 0 0 -1
vn 0 0 -1
vn 0 0 -1
vn -1 0 0
vn -1 0 0
vn -1 0 0
vn -1 0 0
vn 0 0 1
vn 0 0 1
vn 0 0 1
vn 0 0 1
vn 1 0 0
vn 1 0 0
vn 1 0 0
vn 1 0 0
vn 0 -1 0
vn 0 -1 0
vn 0 -1 0
vn 0 -1 0
f 225//673 226//674 227//675 228//676
f 225//677 229//678 230//679 226//680
f 226//681 230//682 231//683 227//684
f 227//685 231//686 232//687 228//688
f 228//689 232//690 229//691 225//692
f 229//693 232//694 231//695 230//696
g object_30
v 414.17623694467568 0 33.794885222624828
v 425.67623694467568 0 33.794885222624828
v 425.67623694467568 0 23.294885222624856
v 414.17623694467568 0 23.294885222624856
v 414.17623694467568 -3 33.794885222624828
v 425.67623694467568 -3 33.794885222624828
v 425.67623694467568 -3 23.294885222624856
v 414.17623694467568 -3 23.294885222624856
vn 0 1 0
vn 0 1 0
vn 0 1 0
vn 0 1 0
vn 0 0 1
vn 0 0 1
vn 0 0 1
vn 0 0 1
vn 1 0 0
vn 1 0 0
vn 1 0 0
vn 1 0 0
vn 0 0 -1
vn 0 0 -1
vn 0 0 -1
vn 0 0 -1
vn -1 0 0
vn -1 0 0
vn -1 0 0
vn -1 0 0
vn 0 -1 0
vn 0 -1 0
vn 0 -1 0
vn 0 -1 0
f 233//697 234//698 235//699 236//700
f 233//701 237//702 238//703 234//704
f 234//705 238//706 239//707 235//708
f 235//709 239//710 240//711 236//712
f 236//713 240//714 237//715 233//716
f 237//717 240//718 239//719 238//720
g object_31
v 394.17623694467568 0 12.794885222624856
v 384.17623694467568 0 12.794885222624856
v 384.17623694467568 0 23.294885222624856
v 394.17623694467568 0 23.294885222624856
v 394.17623694467568 -3 12.794885222624856
v 384.17623694467568 -3 12.794885222624856
v 384.17623694467568 -3 23.294885222624856
v 394.17623694467568 -3 23.294885222624856
vn 0 1 0
vn 0 1 0
vn 0 1 0
vn 0 1 0
vn 0 0 -1
vn 0 0 -1
vn 0 0 -1
vn 0 0 -1
vn -1 0 0
vn -1 0 0
vn -1 0 0
vn -1 0 0
vn 0 0 1
vn 0 0 1
vn 0 0 1
vn 0 0 1
vn 1 0 0
vn 1 0 0
vn 1 0 0
vn 1 0 0
vn 0 -1 0
vn 0 -1 0
vn 0 -1 0
vn 0 -1 0
f 241//721 242//722 243//723 244//724
f 241//725 245//726 246//727 242//728
f 242//729 246//730 247//731 243//732
f 243//733 247//734 248//735 244//736
f 244//737 248//738 245//739 241//740
f 245//741 248//742 247//743 246//744
g object_32
v 414.17623694467568 0 12.794885222624856
v 404.17623694467568 0 12.794885222624856
v 404.17623694467568 0 23.294885222624856
v 414.17623694467568 0 23.294885222624856
v 414.17623694467568 -3 12.794885222624856
v 404.17623694467568 -3 12.794885222624856
v 404.17623694467568 -3 23.294885222624856
v 414.17623694467568 -3 23.294885222624856
vn 0 1 0
vn 0 1 0
vn 0 1 0
vn 0 1 0
vn 0 0 -1
vn 0 0 -1
vn 0 0 -1
vn 0 0 -1
vn -1 0 0
vn -1 0 0
vn -1 0 0
vn -1 0 0
vn 0 0 1
vn 0 0 1
vn 0 0 1
vn 0 0 1
vn 1 0 0
vn 1 0 0
vn 1 0 0
vn 1 0 0
vn 0 -1 0
vn 0 -1 0
vn 0 -1 0
vn 0 -1 0
f 249//745 250//746 251//747 252//748
f 249//749 253//750 254//751 250//752
f 250//753 254//754 255//755 251//756
f 251//757 255//758 256//759 252//760
f 252//761 256//762 253//763 249//764
f 253//765 256//766 255//767 254//768
g object_33
v 394.17623694467568 0 33.794885222624828
v 404.17623694467568 0 33.794885222624828
v 404.17623694467568 0 23.294885222624856
v 394.17623694467568 0 23.294885222624856
v 394.17623694467568 -3 33.794885222624828
v 404.17623694467568 -3 33.794885222624828
v 404.17623694467568 -3 23.294885222624856
v 394.17623694467568 -3 23.294885222624856
vn 0 1 0
vn 0 1 0
vn 0 1 0
vn 0 1 0
vn 0 0 1
vn 0 0 1
vn 0 0 1
vn 0 0 1
vn 1 0 0
vn 1 0 0
vn 1 0 0
vn 1 0 0
vn 0 0 -1
vn 0 0 -1
vn 0 0 -1
vn 0 0 -1
vn -1 0 0
vn -1 0 0
vn -1 0 0
vn -1 0 0
vn 0 -1 0
vn 0 -1 0
vn 0 -1 0
vn 0 -1 0
f 257//769 258//770 259//771 260//772
f 257//773 261//774 262//775 258//776
f 258//777 262//778 263//779 259//780
f 259//781 263//782 264//783 260//784
f 260//785 264//786 261//787 257//788
f 261//789 264//790 263//791 262//792
g object_34
v 356.67623528843063 0 -2.7051147773751723
v 356.67623528843063 0 7.2948852226248277
v 367.17623528843063 0 7.2948852226248277
v 367.17623528843063 0 -2.7051147773751723
v 356.67623528843063 -3 -2.7051147773751723
v 356.67623528843063 -3 7.2948852226248277
v 367.17623528843063 -3 7.2948852226248277
v 367.17623528843063 -3 -2.7051147773751723
vn 0 1 0
vn 0 1 0
vn 0 1 0
vn 0 1 0
vn -1 0 0
vn -1 0 0
vn -1 0 0
vn -1 0 0
vn 0 0 1
vn 0 0 1
vn 0 0 1
vn 0 0 1
vn 1 0 0
vn 1 0 0
vn 1 0 0
vn 1 0 0
vn 0 0 -1
vn 0 0 -1
vn 0 0 -1
vn 0 0 -1
vn 0 -1 0
vn 0 -1 0
vn 0 -1 0
vn 0 -1 0
f 265//793 266//794 267//795 268//796
f 265//797 269//798 270//799 266//800
f 266//801 270//802 271//803 267//804
f 267//805 271//806 272//807 268//808
f 268//809 272//810 269//811 265//812
f 269//813 272//814 271//815 270//816
g object_35
v 356.67623528843063 0 -12.705114777375172
v 356.67623528843063 0 -2.7051147773751723
v 367.17623528843063 0 -2.7051147773751723
v 367.17623528843063 0 -12.705114777375172
v 356.67623528843063 -3 -12.705114777375172
v 356.67623528843063 -3 -2.7051147773751723
v 367.17623528843063 -3 -2.7051147773751723
v 367.17623528843063 -3 -12.705114777375172
vn 0 1 0
vn 0 1 0
vn 0 1 0
vn 0 1 0
vn -1 0 0
vn -1 0 0
vn -1 0 0
vn -1 0 0
vn 0 0 1
vn 0 0 1
vn 0 0 1
vn 0 0 1
vn 1 0 0
vn 1 0 0
vn 1 0 0
vn 1 0 0
vn 0 0 -1
vn 0 0 -1
vn 0 0 -1
vn 0 0 -1
vn 0 -1 0
vn 0 -1 0
vn 0 -1 0
vn 0 -1 0
f 273//817 274//818 275//819 276//820
f 273//821 277//822 278//823 274//824
f 274//825 278//826 279//827 275//828
f 275//829 279//830 280//831 276//832
f 276//833 280//834 277//835 273//836
f 277//837 280//838 279//839 278//840
g object_36
v 356.67623528843063 0 -22.705114777375172
v 356.67623528843063 0 -12.705114777375172
v 367.17623528843063 0 -12.705114777375172
v 367.17623528843063 0 -22.705114777375172
v 356.67623528843063 -3 -22.705114777375172
v 356.67623528843063 -3 -12.705114777375172
v 367.17623528843063 -3 -12.705114777375172
v 367.17623528843063 -3 -22.705114777375172
vn 0 1 0
vn 0 1 0
vn 0 1 0
vn 0 1 0
vn -1 0 0
vn -1 0 0
vn -1 0 0
vn -1 0 0
vn 0 0 1
vn 0 0 1
vn 0 0 1
vn 0 0 1
vn 1 0 0
vn 1 0 0
vn 1 0 0
vn 1 0 0
vn 0 0 -1
vn 0 0 -1
vn 0 0 -1
vn 0 0 -1
vn 0 -1 0
vn 0 -1 0
vn 0 -1 0
vn 0 -1 0
f 281//841 282//842 283//843 284//844
f 281//845 285//846 286//847 282//848
f 282//849 286//850 287//851 283//852
f 283//853 287//854 288//855 284//856
f 284//857 288//858 285//859 281//860
f 285//861 288//862 287//863 286//864
g object_37
v 356.67623528843063 0 -32.705114777375172
v 356.67623528843063 0 -22.705114777375172
v 367.17623528843063 0 -22.705114777375172
v 367.17623528843063 0 -32.705114777375172
v 356.67623528843063 -3 -32.705114777375172
v 356.67623528843063 -3 -22.705114777375172
v 367.17623528843063 -3 -22.705114777375172
v 367.17623528843063 -3 -32.705114777375172
vn 0 1 0
vn 0 1 0
vn 0 1 0
vn 0 1 0
vn -1 0 0
vn -1 0 0
vn -1 0 0
vn -1 0 0
vn 0 0 1
vn 0 0 1
vn 0 0 1
vn 0 0 1
vn 1 0 0
vn 1 0 0
vn 1 0 0
vn 1 0 0
vn 0 0 -1
vn 0 0 -1
vn 0 0 -1
vn 0 0 -1
vn 0 -1 0
vn 0 -1 0
vn 0 -1 0
vn 0 -1 0
f 289//865 290//866 291//867 292//868
f 289//869 293//870 294//871 290//872
f 290//873 294//874 295//875 291//876
f 291//877 295//878 296//879 292//880
f 292//881 296//882 293//883 289//884
f 293//885 296//886 295//887 294//888
g object_38
v 340.17623694467568 0 -59.205114777375115
v 330.17623694467568 0 -59.205114777375115
v 330.17623694467568 0 -48.705114777375144
v 340.17623694467568 0 -48.705114777375144
v 340.17623694467568 -3 -59.205114777375115
v 330.17623694467568 -3 -59.205114777375115
v 330.17623694467568 -3 -48.705114777375144
v 340.17623694467568 -3 -48.705114777375144
vn 0 1 0
vn 0 1 0
vn 0 1 0
vn 0 1 0
vn 0 0 -1
vn 0 0 -1
vn 0 0 -1
vn 0 0 -1
vn -1 0 0
vn -1 0 0
vn -1 0 0
vn -1 0 0
vn 0 0 1
vn 0 0 1
vn 0 0 1
vn 0 0 1
vn 1 0 0
vn 1 0 0
vn 1 0 0
vn 1 0 0
vn 0 -1 0
vn 0 -1 0
vn 0 -1 0
vn 0 -1 0
f 297//889 298//890 299//891 300//892
f 297//893 301//894 302//895 298//896
f 298//897 302//898 303//899 299//900
f 299//901 303//902 304//903 300//904
f 300//905 304//906 301//907 297//908
f 301//909 304//910 303//911 302//912
g object_39
v 320.17623694467568 0 -38.205114777375144
v 330.17623694467568 0 -38.205114777375144
v 330.17623694467568 0 -48.705114777375144
v 320.17623694467568 0 -48.705114777375144
v 320.17623694467568 -3 -38.205114777375144
v 330.17623694467568 -3 -38.205114777375144
v 330.17623694467568 -3 -48.705114777375144
v 320.17623694467568 -3 -48.705114777375144
vn 0 1 0
vn 0 1 0
vn 0 1 0
vn 0 1 0
vn 0 0 1
vn 0 0 1
vn 0 0 1
vn 0 0 1
vn 1 0 0
vn 1 0 0
vn 1 0 0
vn 1 0 0
vn 0 0 -1
vn 0 0 -1
vn 0 0 -1
vn 0 0 -1
vn -1 0 0
vn -1 0 0
vn -1 0 0
vn -1 0 0
vn 0 -1 0
vn 0 -1 0
vn 0 -1 0
vn 0 -1 0
f 305//913 306//914 307//915 308//916
f 305//917 309//918 310//919 306//920
f 306//921 310//922 311//923 307//924
f 307//925 311//926 312//927 308//928
f 308//929 312//930 309//931 305//932
f 309//933 312//934 311//935 310//936
g object_40
v 340.17623694467568 0 -38.205114777375144
v 350.17623694467568 0 -38.205114777375144
v 350.17623694467568 0 -48.705114777375144
v 340.17623694467568 0 -48.705114777375144
v 340.17623694467568 -3 -38.205114777375144
v 350.17623694467568 -3 -38.205114777375144
v 350.17623694467568 -3 -48.705114777375144
v 340.17623694467568 -3 -48.705114777375144
vn 0 1 0
vn 0 1 0
vn 0 1 0
vn 0 1 0
vn 0 0 1
vn 0 0 1
vn 0 0 1
vn 0 0 1
vn 1 0 0
vn 1 0 0
vn 1 0 0
vn 1 0 0
vn 0 0 -1
vn 0 0 -1
vn 0 0 -1
vn 0 0 -1
vn -1 0 0
vn -1 0 0
vn -1 0 0
vn -1 0 0
vn 0 -1 0
vn 0 -1 0
vn 0 -1 0
vn 0 -1 0
f 313//937 314//938 315//939 316//940
f 313//941 317//942 318//943 314//944
f 314//945 318//946 319//947 315//948
f 315//949 319//950 320//951 316//952
f 316//953 320//954 317//955 313//956
f 317//957 320//958 319//959 318//960
