# Rhino

g object_1
v 320.17623694467568 -1 -59.205114777375115
v 303.67623694467568 -1 -59.205114777375115
v 303.67623694467568 -1 -48.705114777375144
v 320.17623694467568 -1 -48.705114777375144
v 320.17623694467568 -4 -59.205114777375115
v 303.67623694467568 -4 -59.205114777375115
v 303.67623694467568 -4 -48.705114777375144
v 320.17623694467568 -4 -48.705114777375144
vn 0 1 0
vn 0 1 0
vn 0 1 0
vn 0 1 0
vn 0 0 -1
vn 0 0 -1
vn 0 0 -1
vn 0 0 -1
vn -1 0 0
vn -1 0 0
vn -1 0 0
vn -1 0 0
vn 0 0 1
vn 0 0 1
vn 0 0 1
vn 0 0 1
vn 1 0 0
vn 1 0 0
vn 1 0 0
vn 1 0 0
vn 0 -1 0
vn 0 -1 0
vn 0 -1 0
vn 0 -1 0
f 1//1 2//2 3//3 4//4
f 1//5 5//6 6//7 2//8
f 2//9 6//10 7//11 3//12
f 3//13 7//14 8//15 4//16
f 4//17 8//18 5//19 1//20
f 5//21 8//22 7//23 6//24
g object_2
v 320.17623694467568 -1 -38.205114777375144
v 320.17623694467568 -1 -48.705114777375144
v 303.67623694467568 -1 -48.705114777375144
v 303.67623694467568 -1 -38.205114777375144
v 303.67623694467568 -4 -38.205114777375144
v 320.17623694467568 -4 -38.205114777375144
v 303.67623694467568 -4 -48.705114777375144
v 320.17623694467568 -4 -48.705114777375144
vn 0 1 0
vn 0 1 0
vn 0 1 0
vn 0 1 0
vn 0 0 1
vn 0 0 1
vn 0 0 1
vn 0 0 1
vn -1 0 0
vn -1 0 0
vn -1 0 0
vn -1 0 0
vn 0 0 -1
vn 0 0 -1
vn 0 0 -1
vn 0 0 -1
vn 1 0 0
vn 1 0 0
vn 1 0 0
vn 1 0 0
vn 0 -1 0
vn 0 -1 0
vn 0 -1 0
vn 0 -1 0
f 9//25 10//26 11//27 12//28
f 9//29 12//30 13//31 14//32
f 12//33 11//34 15//35 13//36
f 11//37 10//38 16//39 15//40
f 10//41 9//42 14//43 16//44
f 14//45 13//46 15//47 16//48
g object_3
v 414.17623694467568 -1 12.794885222624856
v 414.17623694467568 -1 23.294885222624856
v 430.67623694467568 -1 23.294885222624856
v 430.67623694467568 -1 12.794885222624856
v 430.67623694467568 -4 12.794885222624856
v 414.17623694467568 -4 12.794885222624856
v 430.67623694467568 -4 23.294885222624856
v 414.17623694467568 -4 23.294885222624856
vn 0 1 0
vn 0 1 0
vn 0 1 0
vn 0 1 0
vn 0 0 -1
vn 0 0 -1
vn 0 0 -1
vn 0 0 -1
vn 1 0 0
vn 1 0 0
vn 1 0 0
vn 1 0 0
vn 0 0 1
vn 0 0 1
vn 0 0 1
vn 0 0 1
vn -1 0 0
vn -1 0 0
vn -1 0 0
vn -1 0 0
vn 0 -1 0
vn 0 -1 0
vn 0 -1 0
vn 0 -1 0
f 17//49 18//50 19//51 20//52
f 17//53 20//54 21//55 22//56
f 20//57 19//58 23//59 21//60
f 19//61 18//62 24//63 23//64
f 18//65 17//66 22//67 24//68
f 22//69 21//70 23//71 24//72
g object_4
v 414.17623694467568 -1 33.794885222624828
v 430.67623694467568 -1 33.794885222624828
v 430.67623694467568 -1 23.294885222624856
v 414.17623694467568 -1 23.294885222624856
v 414.17623694467568 -4 33.794885222624828
v 430.67623694467568 -4 33.794885222624828
v 430.67623694467568 -4 23.294885222624856
v 414.17623694467568 -4 23.294885222624856
vn 0 1 0
vn 0 1 0
vn 0 1 0
vn 0 1 0
vn 0 0 1
vn 0 0 1
vn 0 0 1
vn 0 0 1
vn 1 0 0
vn 1 0 0
vn 1 0 0
vn 1 0 0
vn 0 0 -1
vn 0 0 -1
vn 0 0 -1
vn 0 0 -1
vn -1 0 0
vn -1 0 0
vn -1 0 0
vn -1 0 0
vn 0 -1 0
vn 0 -1 0
vn 0 -1 0
vn 0 -1 0
f 25//73 26//74 27//75 28//76
f 25//77 29//78 30//79 26//80
f 26//81 30//82 31//83 27//84
f 27//85 31//86 32//87 28//88
f 28//89 32//90 29//91 25//92
f 29//93 32//94 31//95 30//96
g object_5
v 340.17623694467568 -1 -38.205114777375144
v 350.17623694467568 -1 -38.205114777375144
v 350.17623694467568 -1 -48.705114777375144
v 340.17623694467568 -1 -48.705114777375144
v 340.17623694467568 -4 -38.205114777375144
v 350.17623694467568 -4 -38.205114777375144
v 350.17623694467568 -4 -48.705114777375144
v 340.17623694467568 -4 -48.705114777375144
vn 0 1 0
vn 0 1 0
vn 0 1 0
vn 0 1 0
vn 0 0 1
vn 0 0 1
vn 0 0 1
vn 0 0 1
vn 1 0 0
vn 1 0 0
vn 1 0 0
vn 1 0 0
vn 0 0 -1
vn 0 0 -1
vn 0 0 -1
vn 0 0 -1
vn -1 0 0
vn -1 0 0
vn -1 0 0
vn -1 0 0
vn 0 -1 0
vn 0 -1 0
vn 0 -1 0
vn 0 -1 0
f 33//97 34//98 35//99 36//100
f 33//101 37//102 38//103 34//104
f 34//105 38//106 39//107 35//108
f 35//109 39//110 40//111 36//112
f 36//113 40//114 37//115 33//116
f 37//117 40//118 39//119 38//120
g object_6
v 320.17623694467568 -1 -38.205114777375144
v 330.17623694467568 -1 -38.205114777375144
v 330.17623694467568 -1 -48.705114777375144
v 320.17623694467568 -1 -48.705114777375144
v 320.17623694467568 -4 -38.205114777375144
v 330.17623694467568 -4 -38.205114777375144
v 330.17623694467568 -4 -48.705114777375144
v 320.17623694467568 -4 -48.705114777375144
vn 0 1 0
vn 0 1 0
vn 0 1 0
vn 0 1 0
vn 0 0 1
vn 0 0 1
vn 0 0 1
vn 0 0 1
vn 1 0 0
vn 1 0 0
vn 1 0 0
vn 1 0 0
vn 0 0 -1
vn 0 0 -1
vn 0 0 -1
vn 0 0 -1
vn -1 0 0
vn -1 0 0
vn -1 0 0
vn -1 0 0
vn 0 -1 0
vn 0 -1 0
vn 0 -1 0
vn 0 -1 0
f 41//121 42//122 43//123 44//124
f 41//125 45//126 46//127 42//128
f 42//129 46//130 47//131 43//132
f 43//133 47//134 48//135 44//136
f 44//137 48//138 45//139 41//140
f 45//141 48//142 47//143 46//144
g object_7
v 340.17623694467568 -1 -59.205114777375115
v 330.17623694467568 -1 -59.205114777375115
v 330.17623694467568 -1 -48.705114777375144
v 340.17623694467568 -1 -48.705114777375144
v 340.17623694467568 -4 -59.205114777375115
v 330.17623694467568 -4 -59.205114777375115
v 330.17623694467568 -4 -48.705114777375144
v 340.17623694467568 -4 -48.705114777375144
vn 0 1 0
vn 0 1 0
vn 0 1 0
vn 0 1 0
vn 0 0 -1
vn 0 0 -1
vn 0 0 -1
vn 0 0 -1
vn -1 0 0
vn -1 0 0
vn -1 0 0
vn -1 0 0
vn 0 0 1
vn 0 0 1
vn 0 0 1
vn 0 0 1
vn 1 0 0
vn 1 0 0
vn 1 0 0
vn 1 0 0
vn 0 -1 0
vn 0 -1 0
vn 0 -1 0
vn 0 -1 0
f 49//145 50//146 51//147 52//148
f 49//149 53//150 54//151 50//152
f 50//153 54//154 55//155 51//156
f 51//157 55//158 56//159 52//160
f 52//161 56//162 53//163 49//164
f 53//165 56//166 55//167 54//168
g object_8
v 356.67623528843063 -1 -32.705114777375172
v 356.67623528843063 -1 -22.705114777375172
v 367.17623528843063 -1 -22.705114777375172
v 367.17623528843063 -1 -32.705114777375172
v 356.67623528843063 -4 -32.705114777375172
v 356.67623528843063 -4 -22.705114777375172
v 367.17623528843063 -4 -22.705114777375172
v 367.17623528843063 -4 -32.705114777375172
vn 0 1 0
vn 0 1 0
vn 0 1 0
vn 0 1 0
vn -1 0 0
vn -1 0 0
vn -1 0 0
vn -1 0 0
vn 0 0 1
vn 0 0 1
vn 0 0 1
vn 0 0 1
vn 1 0 0
vn 1 0 0
vn 1 0 0
vn 1 0 0
vn 0 0 -1
vn 0 0 -1
vn 0 0 -1
vn 0 0 -1
vn 0 -1 0
vn 0 -1 0
vn 0 -1 0
vn 0 -1 0
f 57//169 58//170 59//171 60//172
f 57//173 61//174 62//175 58//176
f 58//177 62//178 63//179 59//180
f 59//181 63//182 64//183 60//184
f 60//185 64//186 61//187 57//188
f 61//189 64//190 63//191 62//192
g object_9
v 356.67623528843063 -1 -22.705114777375172
v 356.67623528843063 -1 -12.705114777375172
v 367.17623528843063 -1 -12.705114777375172
v 367.17623528843063 -1 -22.705114777375172
v 356.67623528843063 -4 -22.705114777375172
v 356.67623528843063 -4 -12.705114777375172
v 367.17623528843063 -4 -12.705114777375172
v 367.17623528843063 -4 -22.705114777375172
vn 0 1 0
vn 0 1 0
vn 0 1 0
vn 0 1 0
vn -1 0 0
vn -1 0 0
vn -1 0 0
vn -1 0 0
vn 0 0 1
vn 0 0 1
vn 0 0 1
vn 0 0 1
vn 1 0 0
vn 1 0 0
vn 1 0 0
vn 1 0 0
vn 0 0 -1
vn 0 0 -1
vn 0 0 -1
vn 0 0 -1
vn 0 -1 0
vn 0 -1 0
vn 0 -1 0
vn 0 -1 0
f 65//193 66//194 67//195 68//196
f 65//197 69//198 70//199 66//200
f 66//201 70//202 71//203 67//204
f 67//205 71//206 72//207 68//208
f 68//209 72//210 69//211 65//212
f 69//213 72//214 71//215 70//216
g object_10
v 356.67623528843063 -1 -12.705114777375172
v 356.67623528843063 -1 -2.7051147773751723
v 367.17623528843063 -1 -2.7051147773751723
v 367.17623528843063 -1 -12.705114777375172
v 356.67623528843063 -4 -12.705114777375172
v 356.67623528843063 -4 -2.7051147773751723
v 367.17623528843063 -4 -2.7051147773751723
v 367.17623528843063 -4 -12.705114777375172
vn 0 1 0
vn 0 1 0
vn 0 1 0
vn 0 1 0
vn -1 0 0
vn -1 0 0
vn -1 0 0
vn -1 0 0
vn 0 0 1
vn 0 0 1
vn 0 0 1
vn 0 0 1
vn 1 0 0
vn 1 0 0
vn 1 0 0
vn 1 0 0
vn 0 0 -1
vn 0 0 -1
vn 0 0 -1
vn 0 0 -1
vn 0 -1 0
vn 0 -1 0
vn 0 -1 0
vn 0 -1 0
f 73//217 74//218 75//219 76//220
f 73//221 77//222 78//223 74//224
f 74//225 78//226 79//227 75//228
f 75//229 79//230 80//231 76//232
f 76//233 80//234 77//235 73//236
f 77//237 80//238 79//239 78//240
g object_11
v 356.67623528843063 -1 -2.7051147773751723
v 356.67623528843063 -1 7.2948852226248277
v 367.17623528843063 -1 7.2948852226248277
v 367.17623528843063 -1 -2.7051147773751723
v 356.67623528843063 -4 -2.7051147773751723
v 356.67623528843063 -4 7.2948852226248277
v 367.17623528843063 -4 7.2948852226248277
v 367.17623528843063 -4 -2.7051147773751723
vn 0 1 0
vn 0 1 0
vn 0 1 0
vn 0 1 0
vn -1 0 0
vn -1 0 0
vn -1 0 0
vn -1 0 0
vn 0 0 1
vn 0 0 1
vn 0 0 1
vn 0 0 1
vn 1 0 0
vn 1 0 0
vn 1 0 0
vn 1 0 0
vn 0 0 -1
vn 0 0 -1
vn 0 0 -1
vn 0 0 -1
vn 0 -1 0
vn 0 -1 0
vn 0 -1 0
vn 0 -1 0
f 81//241 82//242 83//243 84//244
f 81//245 85//246 86//247 82//248
f 82//249 86//250 87//251 83//252
f 83//253 87//254 88//255 84//256
f 84//257 88//258 85//259 81//260
f 85//261 88//262 87//263 86//264
g object_12
v 394.17623694467568 -1 33.794885222624828
v 404.17623694467568 -1 33.794885222624828
v 404.17623694467568 -1 23.294885222624856
v 394.17623694467568 -1 23.294885222624856
v 394.17623694467568 -4 33.794885222624828
v 404.17623694467568 -4 33.794885222624828
v 404.17623694467568 -4 23.294885222624856
v 394.17623694467568 -4 23.294885222624856
vn 0 1 0
vn 0 1 0
vn 0 1 0
vn 0 1 0
vn 0 0 1
vn 0 0 1
vn 0 0 1
vn 0 0 1
vn 1 0 0
vn 1 0 0
vn 1 0 0
vn 1 0 0
vn 0 0 -1
vn 0 0 -1
vn 0 0 -1
vn 0 0 -1
vn -1 0 0
vn -1 0 0
vn -1 0 0
vn -1 0 0
vn 0 -1 0
vn 0 -1 0
vn 0 -1 0
vn 0 -1 0
f 89//265 90//266 91//267 92//268
f 89//269 93//270 94//271 90//272
f 90//273 94//274 95//275 91//276
f 91//277 95//278 96//279 92//280
f 92//281 96//282 93//283 89//284
f 93//285 96//286 95//287 94//288
g object_13
v 414.17623694467568 -1 12.794885222624856
v 404.17623694467568 -1 12.794885222624856
v 404.17623694467568 -1 23.294885222624856
v 414.17623694467568 -1 23.294885222624856
v 414.17623694467568 -4 12.794885222624856
v 404.17623694467568 -4 12.794885222624856
v 404.17623694467568 -4 23.294885222624856
v 414.17623694467568 -4 23.294885222624856
vn 0 1 0
vn 0 1 0
vn 0 1 0
vn 0 1 0
vn 0 0 -1
vn 0 0 -1
vn 0 0 -1
vn 0 0 -1
vn -1 0 0
vn -1 0 0
vn -1 0 0
vn -1 0 0
vn 0 0 1
vn 0 0 1
vn 0 0 1
vn 0 0 1
vn 1 0 0
vn 1 0 0
vn 1 0 0
vn 1 0 0
vn 0 -1 0
vn 0 -1 0
vn 0 -1 0
vn 0 -1 0
f 97//289 98//290 99//291 100//292
f 97//293 101//294 102//295 98//296
f 98//297 102//298 103//299 99//300
f 99//301 103//302 104//303 100//304
f 100//305 104//306 101//307 97//308
f 101//309 104//310 103//311 102//312
g object_14
v 394.17623694467568 -1 12.794885222624856
v 384.17623694467568 -1 12.794885222624856
v 384.17623694467568 -1 23.294885222624856
v 394.17623694467568 -1 23.294885222624856
v 394.17623694467568 -4 12.794885222624856
v 384.17623694467568 -4 12.794885222624856
v 384.17623694467568 -4 23.294885222624856
v 394.17623694467568 -4 23.294885222624856
vn 0 1 0
vn 0 1 0
vn 0 1 0
vn 0 1 0
vn 0 0 -1
vn 0 0 -1
vn 0 0 -1
vn 0 0 -1
vn -1 0 0
vn -1 0 0
vn -1 0 0
vn -1 0 0
vn 0 0 1
vn 0 0 1
vn 0 0 1
vn 0 0 1
vn 1 0 0
vn 1 0 0
vn 1 0 0
vn 1 0 0
vn 0 -1 0
vn 0 -1 0
vn 0 -1 0
vn 0 -1 0
f 105//313 106//314 107//315 108//316
f 105//317 109//318 110//319 106//320
f 106//321 110//322 111//323 107//324
f 107//325 111//326 112//327 108//328
f 108//329 112//330 109//331 105//332
f 109//333 112//334 111//335 110//336
g object_15
v 377.67623528843058 -1 -32.705114777375172
v 377.67623528843058 -1 -38.205114777375144
v 367.17623528843063 -1 -38.205114777375144
v 367.17623528843063 -1 -32.705114777375172
v 377.67623528843058 -4 -32.705114777375172
v 377.67623528843058 -4 -38.205114777375144
v 367.17623528843063 -4 -38.205114777375144
v 367.17623528843063 -4 -32.705114777375172
vn 0 1 0
vn 0 1 0
vn 0 1 0
vn 0 1 0
vn 1 0 0
vn 1 0 0
vn 1 0 0
vn 1 0 0
vn 0 0 -1
vn 0 0 -1
vn 0 0 -1
vn 0 0 -1
vn -1 0 0
vn -1 0 0
vn -1 0 0
vn -1 0 0
vn 0 0 1
vn 0 0 1
vn 0 0 1
vn 0 0 1
vn 0 -1 0
vn 0 -1 0
vn 0 -1 0
vn 0 -1 0
f 113//337 114//338 115//339 116//340
f 113//341 117//342 118//343 114//344
f 114//345 118//346 119//347 115//348
f 115//349 119//350 120//351 116//352
f 116//353 120//354 117//355 113//356
f 117//357 120//358 119//359 118//360
g object_16
v 356.67623528843063 -1 -59.205114777375115
v 350.17623694467568 -1 -59.205114777375115
v 350.17623694467568 -1 -48.705114777375144
v 356.67623528843063 -1 -48.705114777375144
v 356.67623528843063 -4 -59.205114777375115
v 350.17623694467568 -4 -59.205114777375115
v 350.17623694467568 -4 -48.705114777375144
v 356.67623528843063 -4 -48.705114777375144
vn 0 1 0
vn 0 1 0
vn 0 1 0
vn 0 1 0
vn 0 0 -1
vn 0 0 -1
vn 0 0 -1
vn 0 0 -1
vn -1 0 0
vn -1 0 0
vn -1 0 0
vn -1 0 0
vn 0 0 1
vn 0 0 1
vn 0 0 1
vn 0 0 1
vn 1 0 0
vn 1 0 0
vn 1 0 0
vn 1 0 0
vn 0 -1 0
vn 0 -1 0
vn 0 -1 0
vn 0 -1 0
f 121//361 122//362 123//363 124//364
f 121//365 125//366 126//367 122//368
f 122//369 126//370 127//371 123//372
f 123//373 127//374 128//375 124//376
f 124//377 128//378 125//379 121//380
f 125//381 128//382 127//383 126//384
g object_17
v 356.67623528843063 -1 -38.205114777375144
v 367.17623528843063 -1 -38.205114777375144
v 367.17623528843063 -1 -48.705114777375144
v 356.67623528843063 -1 -48.705114777375144
v 356.67623528843063 -4 -38.205114777375144
v 367.17623528843063 -4 -38.205114777375144
v 367.17623528843063 -4 -48.705114777375144
v 356.67623528843063 -4 -48.705114777375144
vn 0 1 0
vn 0 1 0
vn 0 1 0
vn 0 1 0
vn 0 0 1
vn 0 0 1
vn 0 0 1
vn 0 0 1
vn 1 0 0
vn 1 0 0
vn 1 0 0
vn 1 0 0
vn 0 0 -1
vn 0 0 -1
vn 0 0 -1
vn 0 0 -1
vn -1 0 0
vn -1 0 0
vn -1 0 0
vn -1 0 0
vn 0 -1 0
vn 0 -1 0
vn 0 -1 0
vn 0 -1 0
f 129//385 130//386 131//387 132//388
f 129//389 133//390 134//391 130//392
f 130//393 134//394 135//395 131//396
f 131//397 135//398 136//399 132//400
f 132//401 136//402 133//403 129//404
f 133//405 136//406 135//407 134//408
g object_18
v 377.67623528843058 -1 -59.205114777375115
v 367.17623528843063 -1 -59.205114777375115
v 367.17623528843063 -1 -48.705114777375144
v 377.67623528843058 -1 -48.705114777375144
v 377.67623528843058 -4 -59.205114777375115
v 367.17623528843063 -4 -59.205114777375115
v 367.17623528843063 -4 -48.705114777375144
v 377.67623528843058 -4 -48.705114777375144
vn 0 1 0
vn 0 1 0
vn 0 1 0
vn 0 1 0
vn 0 0 -1
vn 0 0 -1
vn 0 0 -1
vn 0 0 -1
vn -1 0 0
vn -1 0 0
vn -1 0 0
vn -1 0 0
vn 0 0 1
vn 0 0 1
vn 0 0 1
vn 0 0 1
vn 1 0 0
vn 1 0 0
vn 1 0 0
vn 1 0 0
vn 0 -1 0
vn 0 -1 0
vn 0 -1 0
vn 0 -1 0
f 137//409 138//410 139//411 140//412
f 137//413 141//414 142//415 138//416
f 138//417 142//418 143//419 139//420
f 139//421 143//422 144//423 140//424
f 140//425 144//426 141//427 137//428
f 141//429 144//430 143//431 142//432
g object_19
v 377.67623528843058 -1 33.794885222624828
v 384.17623694467568 -1 33.794885222624828
v 384.17623694467568 -1 23.294885222624856
v 377.67623528843058 -1 23.294885222624856
v 377.67623528843058 -4 33.794885222624828
v 384.17623694467568 -4 33.794885222624828
v 384.17623694467568 -4 23.294885222624856
v 377.67623528843058 -4 23.294885222624856
vn 0 1 0
vn 0 1 0
vn 0 1 0
vn 0 1 0
vn 0 0 1
vn 0 0 1
vn 0 0 1
vn 0 0 1
vn 1 0 0
vn 1 0 0
vn 1 0 0
vn 1 0 0
vn 0 0 -1
vn 0 0 -1
vn 0 0 -1
vn 0 0 -1
vn -1 0 0
vn -1 0 0
vn -1 0 0
vn -1 0 0
vn 0 -1 0
vn 0 -1 0
vn 0 -1 0
vn 0 -1 0
f 145//433 146//434 147//435 148//436
f 145//437 149//438 150//439 146//440
f 146//441 150//442 151//443 147//444
f 147//445 151//446 152//447 148//448
f 148//449 152//450 149//451 145//452
f 149//453 152//454 151//455 150//456
g object_20
v 356.67623528843063 -1 7.2948852226248277
v 356.67623528843063 -1 12.794885222624771
v 367.17623528843063 -1 12.794885222624771
v 367.17623528843063 -1 7.2948852226248277
v 356.67623528843063 -4 7.2948852226248277
v 356.67623528843063 -4 12.794885222624771
v 367.17623528843063 -4 12.794885222624771
v 367.17623528843063 -4 7.2948852226248277
vn 0 1 0
vn 0 1 0
vn 0 1 0
vn 0 1 0
vn -1 0 0
vn -1 0 0
vn -1 0 0
vn -1 0 0
vn 0 0 1
vn 0 0 1
vn 0 0 1
vn 0 0 1
vn 1 0 0
vn 1 0 0
vn 1 0 0
vn 1 0 0
vn 0 0 -1
vn 0 0 -1
vn 0 0 -1
vn 0 0 -1
vn 0 -1 0
vn 0 -1 0
vn 0 -1 0
vn 0 -1 0
f 153//457 154//458 155//459 156//460
f 153//461 157//462 158//463 154//464
f 154//465 158//466 159//467 155//468
f 155//469 159//470 160//471 156//472
f 156//473 160//474 157//475 153//476
f 157//477 160//478 159//479 158//480
g object_21
v 356.67623528843063 -1 33.794885222624771
v 367.17623528843063 -1 33.794885222624771
v 367.17623528843063 -1 23.294885222624771
v 356.67623528843063 -1 23.294885222624771
v 356.67623528843063 -4 33.794885222624771
v 367.17623528843063 -4 33.794885222624771
v 367.17623528843063 -4 23.294885222624771
v 356.67623528843063 -4 23.294885222624771
vn 0 1 0
vn 0 1 0
vn 0 1 0
vn 0 1 0
vn 0 0 1
vn 0 0 1
vn 0 0 1
vn 0 0 1
vn 1 0 0
vn 1 0 0
vn 1 0 0
vn 1 0 0
vn 0 0 -1
vn 0 0 -1
vn 0 0 -1
vn 0 0 -1
vn -1 0 0
vn -1 0 0
vn -1 0 0
vn -1 0 0
vn 0 -1 0
vn 0 -1 0
vn 0 -1 0
vn 0 -1 0
f 161//481 162//482 163//483 164//484
f 161//485 165//486 166//487 162//488
f 162//489 166//490 167//491 163//492
f 163//493 167//494 168//495 164//496
f 164//497 168//498 165//499 161//500
f 165//501 168//502 167//503 166//504
g object_22
v 377.67623528843058 -1 12.794885222624771
v 367.17623528843063 -1 12.794885222624771
v 367.17623528843063 -1 23.294885222624771
v 377.67623528843058 -1 23.294885222624771
v 377.67623528843058 -4 12.794885222624771
v 367.17623528843063 -4 12.794885222624771
v 367.17623528843063 -4 23.294885222624771
v 377.67623528843058 -4 23.294885222624771
vn 0 1 0
vn 0 1 0
vn 0 1 0
vn 0 1 0
vn 0 0 -1
vn 0 0 -1
vn 0 0 -1
vn 0 0 -1
vn -1 0 0
vn -1 0 0
vn -1 0 0
vn -1 0 0
vn 0 0 1
vn 0 0 1
vn 0 0 1
vn 0 0 1
vn 1 0 0
vn 1 0 0
vn 1 0 0
vn 1 0 0
vn 0 -1 0
vn 0 -1 0
vn 0 -1 0
vn 0 -1 0
f 169//505 170//506 171//507 172//508
f 169//509 173//510 174//511 170//512
f 170//513 174//514 175//515 171//516
f 171//517 175//518 176//519 172//520
f 172//521 176//522 173//523 169//524
f 173//525 176//526 175//527 174//528
g object_23
v 340.17623694467568 -1 -38.205114777375144
v 340.17623694467568 -1 -48.705114777375144
v 330.17623694467568 -1 -48.705114777375144
v 330.17623694467568 -1 -38.205114777375144
v 330.17623694467568 -4 -38.205114777375144
v 340.17623694467568 -4 -38.205114777375144
v 330.17623694467568 -4 -48.705114777375144
v 340.17623694467568 -4 -48.705114777375144
vn 0 1 0
vn 0 1 0
vn 0 1 0
vn 0 1 0
vn 0 0 1
vn 0 0 1
vn 0 0 1
vn 0 0 1
vn -1 0 0
vn -1 0 0
vn -1 0 0
vn -1 0 0
vn 0 0 -1
vn 0 0 -1
vn 0 0 -1
vn 0 0 -1
vn 1 0 0
vn 1 0 0
vn 1 0 0
vn 1 0 0
vn 0 -1 0
vn 0 -1 0
vn 0 -1 0
vn 0 -1 0
f 177//529 178//530 179//531 180//532
f 177//533 180//534 181//535 182//536
f 180//537 179//538 183//539 181//540
f 179//541 178//542 184//543 183//544
f 178//545 177//546 182//547 184//548
f 182//549 181//550 183//551 184//552
g object_24
v 340.17623694467568 -1 -59.205114777375115
v 340.17623694467568 -1 -48.705114777375144
v 350.17623694467568 -1 -48.705114777375144
v 350.17623694467568 -1 -59.205114777375115
v 350.17623694467568 -4 -59.205114777375115
v 340.17623694467568 -4 -59.205114777375115
v 350.17623694467568 -4 -48.705114777375144
v 340.17623694467568 -4 -48.705114777375144
vn 0 1 0
vn 0 1 0
vn 0 1 0
vn 0 1 0
vn 0 0 -1
vn 0 0 -1
vn 0 0 -1
vn 0 0 -1
vn 1 0 0
vn 1 0 0
vn 1 0 0
vn 1 0 0
vn 0 0 1
vn 0 0 1
vn 0 0 1
vn 0 0 1
vn -1 0 0
vn -1 0 0
vn -1 0 0
vn -1 0 0
vn 0 -1 0
vn 0 -1 0
vn 0 -1 0
vn 0 -1 0
f 185//553 186//554 187//555 188//556
f 185//557 188//558 189//559 190//560
f 188//561 187//562 191//563 189//564
f 187//565 186//566 192//567 191//568
f 186//569 185//570 190//571 192//572
f 190//573 189//574 191//575 192//576
g object_25
v 320.17623694467568 -1 -59.205114777375115
v 320.17623694467568 -1 -48.705114777375144
v 330.17623694467568 -1 -48.705114777375144
v 330.17623694467568 -1 -59.205114777375115
v 330.17623694467568 -4 -59.205114777375115
v 320.17623694467568 -4 -59.205114777375115
v 330.17623694467568 -4 -48.705114777375144
v 320.17623694467568 -4 -48.705114777375144
vn 0 1 0
vn 0 1 0
vn 0 1 0
vn 0 1 0
vn 0 0 -1
vn 0 0 -1
vn 0 0 -1
vn 0 0 -1
vn 1 0 0
vn 1 0 0
vn 1 0 0
vn 1 0 0
vn 0 0 1
vn 0 0 1
vn 0 0 1
vn 0 0 1
vn -1 0 0
vn -1 0 0
vn -1 0 0
vn -1 0 0
vn 0 -1 0
vn 0 -1 0
vn 0 -1 0
vn 0 -1 0
f 193//577 194//578 195//579 196//580
f 193//581 196//582 197//583 198//584
f 196//585 195//586 199//587 197//588
f 195//589 194//590 200//591 199//592
f 194//593 193//594 198//595 200//596
f 198//597 197//598 199//599 200//600
g object_26
v 377.67623528843058 -1 -32.705114777375172
v 367.17623528843063 -1 -32.705114777375172
v 367.17623528843063 -1 -22.705114777375172
v 377.67623528843058 -1 -22.705114777375172
v 377.67623528843058 -4 -22.705114777375172
v 377.67623528843058 -4 -32.705114777375172
v 367.17623528843063 -4 -22.705114777375172
v 367.17623528843063 -4 -32.705114777375172
vn 0 1 0
vn 0 1 0
vn 0 1 0
vn 0 1 0
vn 1 0 0
vn 1 0 0
vn 1 0 0
vn 1 0 0
vn 0 0 1
vn 0 0 1
vn 0 0 1
vn 0 0 1
vn -1 0 0
vn -1 0 0
vn -1 0 0
vn -1 0 0
vn 0 0 -1
vn 0 0 -1
vn 0 0 -1
vn 0 0 -1
vn 0 -1 0
vn 0 -1 0
vn 0 -1 0
vn 0 -1 0
f 201//601 202//602 203//603 204//604
f 201//605 204//606 205//607 206//608
f 204//609 203//610 207//611 205//612
f 203//613 202//614 208//615 207//616
f 202//617 201//618 206//619 208//620
f 206//621 205//622 207//623 208//624
g object_27
v 377.67623528843058 -1 -22.705114777375172
v 367.17623528843063 -1 -22.705114777375172
v 367.17623528843063 -1 -12.705114777375172
v 377.67623528843058 -1 -12.705114777375172
v 377.67623528843058 -4 -12.705114777375172
v 377.67623528843058 -4 -22.705114777375172
v 367.17623528843063 -4 -12.705114777375172
v 367.17623528843063 -4 -22.705114777375172
vn 0 1 0
vn 0 1 0
vn 0 1 0
vn 0 1 0
vn 1 0 0
vn 1 0 0
vn 1 0 0
vn 1 0 0
vn 0 0 1
vn 0 0 1
vn 0 0 1
vn 0 0 1
vn -1 0 0
vn -1 0 0
vn -1 0 0
vn -1 0 0
vn 0 0 -1
vn 0 0 -1
vn 0 0 -1
vn 0 0 -1
vn 0 -1 0
vn 0 -1 0
vn 0 -1 0
vn 0 -1 0
f 209//625 210//626 211//627 212//628
f 209//629 212//630 213//631 214//632
f 212//633 211//634 215//635 213//636
f 211//637 210//638 216//639 215//640
f 210//641 209//642 214//643 216//644
f 214//645 213//646 215//647 216//648
g object_28
v 377.67623528843058 -1 -12.705114777375172
v 367.17623528843063 -1 -12.705114777375172
v 367.17623528843063 -1 -2.7051147773751723
v 377.67623528843058 -1 -2.7051147773751723
v 377.67623528843058 -4 -2.7051147773751723
v 377.67623528843058 -4 -12.705114777375172
v 367.17623528843063 -4 -2.7051147773751723
v 367.17623528843063 -4 -12.705114777375172
vn 0 1 0
vn 0 1 0
vn 0 1 0
vn 0 1 0
vn 1 0 0
vn 1 0 0
vn 1 0 0
vn 1 0 0
vn 0 0 1
vn 0 0 1
vn 0 0 1
vn 0 0 1
vn -1 0 0
vn -1 0 0
vn -1 0 0
vn -1 0 0
vn 0 0 -1
vn 0 0 -1
vn 0 0 -1
vn 0 0 -1
vn 0 -1 0
vn 0 -1 0
vn 0 -1 0
vn 0 -1 0
f 217//649 218//650 219//651 220//652
f 217//653 220//654 221//655 222//656
f 220//657 219//658 223//659 221//660
f 219//661 218//662 224//663 223//664
f 218//665 217//666 222//667 224//668
f 222//669 221//670 223//671 224//672
g object_29
v 377.67623528843058 -1 -2.7051147773751723
v 367.17623528843063 -1 -2.7051147773751723
v 367.17623528843063 -1 7.2948852226248277
v 377.67623528843058 -1 7.2948852226248277
v 377.67623528843058 -4 7.2948852226248277
v 377.67623528843058 -4 -2.7051147773751723
v 367.17623528843063 -4 7.2948852226248277
v 367.17623528843063 -4 -2.7051147773751723
vn 0 1 0
vn 0 1 0
vn 0 1 0
vn 0 1 0
vn 1 0 0
vn 1 0 0
vn 1 0 0
vn 1 0 0
vn 0 0 1
vn 0 0 1
vn 0 0 1
vn 0 0 1
vn -1 0 0
vn -1 0 0
vn -1 0 0
vn -1 0 0
vn 0 0 -1
vn 0 0 -1
vn 0 0 -1
vn 0 0 -1
vn 0 -1 0
vn 0 -1 0
vn 0 -1 0
vn 0 -1 0
f 225//673 226//674 227//675 228//676
f 225//677 228//678 229//679 230//680
f 228//681 227//682 231//683 229//684
f 227//685 226//686 232//687 231//688
f 226//689 225//690 230//691 232//692
f 230//693 229//694 231//695 232//696
g object_30
v 414.17623694467568 -1 33.794885222624828
v 414.17623694467568 -1 23.294885222624856
v 404.17623694467568 -1 23.294885222624856
v 404.17623694467568 -1 33.794885222624828
v 404.17623694467568 -4 33.794885222624828
v 414.17623694467568 -4 33.794885222624828
v 404.17623694467568 -4 23.294885222624856
v 414.17623694467568 -4 23.294885222624856
vn 0 1 0
vn 0 1 0
vn 0 1 0
vn 0 1 0
vn 0 0 1
vn 0 0 1
vn 0 0 1
vn 0 0 1
vn -1 0 0
vn -1 0 0
vn -1 0 0
vn -1 0 0
vn 0 0 -1
vn 0 0 -1
vn 0 0 -1
vn 0 0 -1
vn 1 0 0
vn 1 0 0
vn 1 0 0
vn 1 0 0
vn 0 -1 0
vn 0 -1 0
vn 0 -1 0
vn 0 -1 0
f 233//697 234//698 235//699 236//700
f 233//701 236//702 237//703 238//704
f 236//705 235//706 239//707 237//708
f 235//709 234//710 240//711 239//712
f 234//713 233//714 238//715 240//716
f 238//717 237//718 239//719 240//720
g object_31
v 394.17623694467568 -1 33.794885222624828
v 394.17623694467568 -1 23.294885222624856
v 384.17623694467568 -1 23.294885222624856
v 384.17623694467568 -1 33.794885222624828
v 384.17623694467568 -4 33.794885222624828
v 394.17623694467568 -4 33.794885222624828
v 384.17623694467568 -4 23.294885222624856
v 394.17623694467568 -4 23.294885222624856
vn 0 1 0
vn 0 1 0
vn 0 1 0
vn 0 1 0
vn 0 0 1
vn 0 0 1
vn 0 0 1
vn 0 0 1
vn -1 0 0
vn -1 0 0
vn -1 0 0
vn -1 0 0
vn 0 0 -1
vn 0 0 -1
vn 0 0 -1
vn 0 0 -1
vn 1 0 0
vn 1 0 0
vn 1 0 0
vn 1 0 0
vn 0 -1 0
vn 0 -1 0
vn 0 -1 0
vn 0 -1 0
f 241//721 242//722 243//723 244//724
f 241//725 244//726 245//727 246//728
f 244//729 243//730 247//731 245//732
f 243//733 242//734 248//735 247//736
f 242//737 241//738 246//739 248//740
f 246//741 245//742 247//743 248//744
g object_32
v 394.17623694467568 -1 12.794885222624856
v 394.17623694467568 -1 23.294885222624856
v 404.17623694467568 -1 23.294885222624856
v 404.17623694467568 -1 12.794885222624856
v 404.17623694467568 -4 12.794885222624856
v 394.17623694467568 -4 12.794885222624856
v 404.17623694467568 -4 23.294885222624856
v 394.17623694467568 -4 23.294885222624856
vn 0 1 0
vn 0 1 0
vn 0 1 0
vn 0 1 0
vn 0 0 -1
vn 0 0 -1
vn 0 0 -1
vn 0 0 -1
vn 1 0 0
vn 1 0 0
vn 1 0 0
vn 1 0 0
vn 0 0 1
vn 0 0 1
vn 0 0 1
vn 0 0 1
vn -1 0 0
vn -1 0 0
vn -1 0 0
vn -1 0 0
vn 0 -1 0
vn 0 -1 0
vn 0 -1 0
vn 0 -1 0
f 249//745 250//746 251//747 252//748
f 249//749 252//750 253//751 254//752
f 252//753 251//754 255//755 253//756
f 251//757 250//758 256//759 255//760
f 250//761 249//762 254//763 256//764
f 254//765 253//766 255//767 256//768
g object_33
v 356.67623528843063 -1 -32.705114777375172
v 367.17623528843063 -1 -32.705114777375172
v 367.17623528843063 -1 -38.205114777375144
v 356.67623528843063 -1 -38.205114777375144
v 356.67623528843063 -4 -38.205114777375144
v 356.67623528843063 -4 -32.705114777375172
v 367.17623528843063 -4 -38.205114777375144
v 367.17623528843063 -4 -32.705114777375172
vn 0 1 0
vn 0 1 0
vn 0 1 0
vn 0 1 0
vn -1 0 0
vn -1 0 0
vn -1 0 0
vn -1 0 0
vn 0 0 -1
vn 0 0 -1
vn 0 0 -1
vn 0 0 -1
vn 1 0 0
vn 1 0 0
vn 1 0 0
vn 1 0 0
vn 0 0 1
vn 0 0 1
vn 0 0 1
vn 0 0 1
vn 0 -1 0
vn 0 -1 0
vn 0 -1 0
vn 0 -1 0
f 257//769 258//770 259//771 260//772
f 257//773 260//774 261//775 262//776
f 260//777 259//778 263//779 261//780
f 259//781 258//782 264//783 263//784
f 258//785 257//786 262//787 264//788
f 262//789 261//790 263//791 264//792
g object_34
v 356.67623528843063 -1 -38.205114777375144
v 356.67623528843063 -1 -48.705114777375144
v 350.17623694467568 -1 -48.705114777375144
v 350.17623694467568 -1 -38.205114777375144
v 350.17623694467568 -4 -38.205114777375144
v 356.67623528843063 -4 -38.205114777375144
v 350.17623694467568 -4 -48.705114777375144
v 356.67623528843063 -4 -48.705114777375144
vn 0 1 0
vn 0 1 0
vn 0 1 0
vn 0 1 0
vn 0 0 1
vn 0 0 1
vn 0 0 1
vn 0 0 1
vn -1 0 0
vn -1 0 0
vn -1 0 0
vn -1 0 0
vn 0 0 -1
vn 0 0 -1
vn 0 0 -1
vn 0 0 -1
vn 1 0 0
vn 1 0 0
vn 1 0 0
vn 1 0 0
vn 0 -1 0
vn 0 -1 0
vn 0 -1 0
vn 0 -1 0
f 265//793 266//794 267//795 268//796
f 265//797 268//798 269//799 270//800
f 268//801 267//802 271//803 269//804
f 267//805 266//806 272//807 271//808
f 266//809 265//810 270//811 272//812
f 270//813 269//814 271//815 272//816
g object_35
v 356.67623528843063 -1 -59.205114777375115
v 356.67623528843063 -1 -48.705114777375144
v 367.17623528843063 -1 -48.705114777375144
v 367.17623528843063 -1 -59.205114777375115
v 367.17623528843063 -4 -59.205114777375115
v 356.67623528843063 -4 -59.205114777375115
v 367.17623528843063 -4 -48.705114777375144
v 356.67623528843063 -4 -48.705114777375144
vn 0 1 0
vn 0 1 0
vn 0 1 0
vn 0 1 0
vn 0 0 -1
vn 0 0 -1
vn 0 0 -1
vn 0 0 -1
vn 1 0 0
vn 1 0 0
vn 1 0 0
vn 1 0 0
vn 0 0 1
vn 0 0 1
vn 0 0 1
vn 0 0 1
vn -1 0 0
vn -1 0 0
vn -1 0 0
vn -1 0 0
vn 0 -1 0
vn 0 -1 0
vn 0 -1 0
vn 0 -1 0
f 273//817 274//818 275//819 276//820
f 273//821 276//822 277//823 278//824
f 276//825 275//826 279//827 277//828
f 275//829 274//830 280//831 279//832
f 274//833 273//834 278//835 280//836
f 278//837 277//838 279//839 280//840
g object_36
v 377.67623528843058 -1 -38.205114777375144
v 377.67623528843058 -1 -48.705114777375144
v 367.17623528843063 -1 -48.705114777375144
v 367.17623528843063 -1 -38.205114777375144
v 367.17623528843063 -4 -38.205114777375144
v 377.67623528843058 -4 -38.205114777375144
v 367.17623528843063 -4 -48.705114777375144
v 377.67623528843058 -4 -48.705114777375144
vn 0 1 0
vn 0 1 0
vn 0 1 0
vn 0 1 0
vn 0 0 1
vn 0 0 1
vn 0 0 1
vn 0 0 1
vn -1 0 0
vn -1 0 0
vn -1 0 0
vn -1 0 0
vn 0 0 -1
vn 0 0 -1
vn 0 0 -1
vn 0 0 -1
vn 1 0 0
vn 1 0 0
vn 1 0 0
vn 1 0 0
vn 0 -1 0
vn 0 -1 0
vn 0 -1 0
vn 0 -1 0
f 281//841 282//842 283//843 284//844
f 281//845 284//846 285//847 286//848
f 284//849 283//850 287//851 285//852
f 283//853 282//854 288//855 287//856
f 282//857 281//858 286//859 288//860
f 286//861 285//862 287//863 288//864
g object_37
v 377.67623528843058 -1 12.794885222624856
v 377.67623528843058 -1 23.294885222624856
v 384.17623694467568 -1 23.294885222624856
v 384.17623694467568 -1 12.794885222624856
v 384.17623694467568 -4 12.794885222624856
v 377.67623528843058 -4 12.794885222624856
v 384.17623694467568 -4 23.294885222624856
v 377.67623528843058 -4 23.294885222624856
vn 0 1 0
vn 0 1 0
vn 0 1 0
vn 0 1 0
vn 0 0 -1
vn 0 0 -1
vn 0 0 -1
vn 0 0 -1
vn 1 0 0
vn 1 0 0
vn 1 0 0
vn 1 0 0
vn 0 0 1
vn 0 0 1
vn 0 0 1
vn 0 0 1
vn -1 0 0
vn -1 0 0
vn -1 0 0
vn -1 0 0
vn 0 -1 0
vn 0 -1 0
vn 0 -1 0
vn 0 -1 0
f 289//865 290//866 291//867 292//868
f 289//869 292//870 293//871 294//872
f 292//873 291//874 295//875 293//876
f 291//877 290//878 296//879 295//880
f 290//881 289//882 294//883 296//884
f 294//885 293//886 295//887 296//888
g object_38
v 377.67623528843058 -1 7.2948852226248277
v 367.17623528843063 -1 7.2948852226248277
v 367.17623528843063 -1 12.794885222624771
v 377.67623528843058 -1 12.794885222624771
v 377.67623528843058 -4 12.794885222624771
v 377.67623528843058 -4 7.2948852226248277
v 367.17623528843063 -4 12.794885222624771
v 367.17623528843063 -4 7.2948852226248277
vn 0 1 0
vn 0 1 0
vn 0 1 0
vn 0 1 0
vn 1 0 0
vn 1 0 0
vn 1 0 0
vn 1 0 0
vn 0 0 1
vn 0 0 1
vn 0 0 1
vn 0 0 1
vn -1 0 0
vn -1 0 0
vn -1 0 0
vn -1 0 0
vn 0 0 -1
vn 0 0 -1
vn 0 0 -1
vn 0 0 -1
vn 0 -1 0
vn 0 -1 0
vn 0 -1 0
vn 0 -1 0
f 297//889 298//890 299//891 300//892
f 297//893 300//894 301//895 302//896
f 300//897 299//898 303//899 301//900
f 299//901 298//902 304//903 303//904
f 298//905 297//906 302//907 304//908
f 302//909 301//910 303//911 304//912
g object_39
v 356.67623528843063 -1 12.794885222624771
v 356.67623528843063 -1 23.294885222624771
v 367.17623528843063 -1 23.294885222624771
v 367.17623528843063 -1 12.794885222624771
v 367.17623528843063 -4 12.794885222624771
v 356.67623528843063 -4 12.794885222624771
v 367.17623528843063 -4 23.294885222624771
v 356.67623528843063 -4 23.294885222624771
vn 0 1 0
vn 0 1 0
vn 0 1 0
vn 0 1 0
vn 0 0 -1
vn 0 0 -1
vn 0 0 -1
vn 0 0 -1
vn 1 0 0
vn 1 0 0
vn 1 0 0
vn 1 0 0
vn 0 0 1
vn 0 0 1
vn 0 0 1
vn 0 0 1
vn -1 0 0
vn -1 0 0
vn -1 0 0
vn -1 0 0
vn 0 -1 0
vn 0 -1 0
vn 0 -1 0
vn 0 -1 0
f 305//913 306//914 307//915 308//916
f 305//917 308//918 309//919 310//920
f 308//921 307//922 311//923 309//924
f 307//925 306//926 312//927 311//928
f 306//929 305//930 310//931 312//932
f 310//933 309//934 311//935 312//936
g object_40
v 377.67623528843058 -1 33.794885222624771
v 377.67623528843058 -1 23.294885222624771
v 367.17623528843063 -1 23.294885222624771
v 367.17623528843063 -1 33.794885222624771
v 367.17623528843063 -4 33.794885222624771
v 377.67623528843058 -4 33.794885222624771
v 367.17623528843063 -4 23.294885222624771
v 377.67623528843058 -4 23.294885222624771
vn 0 1 0
vn 0 1 0
vn 0 1 0
vn 0 1 0
vn 0 0 1
vn 0 0 1
vn 0 0 1
vn 0 0 1
vn -1 0 0
vn -1 0 0
vn -1 0 0
vn -1 0 0
vn 0 0 -1
vn 0 0 -1
vn 0 0 -1
vn 0 0 -1
vn 1 0 0
vn 1 0 0
vn 1 0 0
vn 1 0 0
vn 0 -1 0
vn 0 -1 0
vn 0 -1 0
vn 0 -1 0
f 313//937 314//938 315//939 316//940
f 313//941 316//942 317//943 318//944
f 316//945 315//946 319//947 317//948
f 315//949 314//950 320//951 319//952
f 314//953 313//954 318//955 320//956
f 318//957 317//958 319//959 320//960
