# Rhino

g object_1
v 320.17623694467568 0 -57.205114777375115
v 306.17623694467568 0 -57.205114777375115
v 306.17623694467568 0 -48.705114777375144
v 320.17623694467568 0 -48.705114777375144
v 320.17623694467568 -1 -57.205114777375115
v 306.17623694467568 -1 -57.205114777375115
v 306.17623694467568 -1 -48.705114777375144
v 320.17623694467568 -1 -48.705114777375144
vn 0 1 0
vn 0 1 0
vn 0 1 0
vn 0 1 0
vn 0 0 -1
vn 0 0 -1
vn 0 0 -1
vn 0 0 -1
vn -1 0 0
vn -1 0 0
vn -1 0 0
vn -1 0 0
vn 0 0 1
vn 0 0 1
vn 0 0 1
vn 0 0 1
vn 1 0 0
vn 1 0 0
vn 1 0 0
vn 1 0 0
vn 0 -1 0
vn 0 -1 0
vn 0 -1 0
vn 0 -1 0
f 1//1 2//2 3//3 4//4
f 1//5 5//6 6//7 2//8
f 2//9 6//10 7//11 3//12
f 3//13 7//14 8//15 4//16
f 4//17 8//18 5//19 1//20
f 5//21 8//22 7//23 6//24
g object_2
v 320.17623694467568 0 -40.205114777375144
v 320.17623694467568 0 -48.705114777375144
v 306.17623694467568 0 -48.705114777375144
v 306.17623694467568 0 -40.205114777375144
v 306.17623694467568 -1 -40.205114777375144
v 320.17623694467568 -1 -40.205114777375144
v 306.17623694467568 -1 -48.705114777375144
v 320.17623694467568 -1 -48.705114777375144
vn 0 1 0
vn 0 1 0
vn 0 1 0
vn 0 1 0
vn 0 0 1
vn 0 0 1
vn 0 0 1
vn 0 0 1
vn -1 0 0
vn -1 0 0
vn -1 0 0
vn -1 0 0
vn 0 0 -1
vn 0 0 -1
vn 0 0 -1
vn 0 0 -1
vn 1 0 0
vn 1 0 0
vn 1 0 0
vn 1 0 0
vn 0 -1 0
vn 0 -1 0
vn 0 -1 0
vn 0 -1 0
f 9//25 10//26 11//27 12//28
f 9//29 12//30 13//31 14//32
f 12//33 11//34 15//35 13//36
f 11//37 10//38 16//39 15//40
f 10//41 9//42 14//43 16//44
f 14//45 13//46 15//47 16//48
g object_3
v 414.17623694467568 0 14.794885222624856
v 414.17623694467568 0 23.294885222624856
v 428.17623694467568 0 23.294885222624856
v 428.17623694467568 0 14.794885222624856
v 428.17623694467568 -1 14.794885222624856
v 414.17623694467568 -1 14.794885222624856
v 428.17623694467568 -1 23.294885222624856
v 414.17623694467568 -1 23.294885222624856
vn 0 1 0
vn 0 1 0
vn 0 1 0
vn 0 1 0
vn 0 0 -1
vn 0 0 -1
vn 0 0 -1
vn 0 0 -1
vn 1 0 0
vn 1 0 0
vn 1 0 0
vn 1 0 0
vn 0 0 1
vn 0 0 1
vn 0 0 1
vn 0 0 1
vn -1 0 0
vn -1 0 0
vn -1 0 0
vn -1 0 0
vn 0 -1 0
vn 0 -1 0
vn 0 -1 0
vn 0 -1 0
f 17//49 18//50 19//51 20//52
f 17//53 20//54 21//55 22//56
f 20//57 19//58 23//59 21//60
f 19//61 18//62 24//63 23//64
f 18//65 17//66 22//67 24//68
f 22//69 21//70 23//71 24//72
g object_4
v 414.17623694467568 0 31.794885222624828
v 428.17623694467568 0 31.794885222624828
v 428.17623694467568 0 23.294885222624856
v 414.17623694467568 0 23.294885222624856
v 414.17623694467568 -1 31.794885222624828
v 428.17623694467568 -1 31.794885222624828
v 428.17623694467568 -1 23.294885222624856
v 414.17623694467568 -1 23.294885222624856
vn 0 1 0
vn 0 1 0
vn 0 1 0
vn 0 1 0
vn 0 0 1
vn 0 0 1
vn 0 0 1
vn 0 0 1
vn 1 0 0
vn 1 0 0
vn 1 0 0
vn 1 0 0
vn 0 0 -1
vn 0 0 -1
vn 0 0 -1
vn 0 0 -1
vn -1 0 0
vn -1 0 0
vn -1 0 0
vn -1 0 0
vn 0 -1 0
vn 0 -1 0
vn 0 -1 0
vn 0 -1 0
f 25//73 26//74 27//75 28//76
f 25//77 29//78 30//79 26//80
f 26//81 30//82 31//83 27//84
f 27//85 31//86 32//87 28//88
f 28//89 32//90 29//91 25//92
f 29//93 32//94 31//95 30//96
g object_5
v 394.17623694467568 0 31.794885222624828
v 404.17623694467568 0 31.794885222624828
v 404.17623694467568 0 23.294885222624856
v 394.17623694467568 0 23.294885222624856
v 394.17623694467568 -1 31.794885222624828
v 404.17623694467568 -1 31.794885222624828
v 404.17623694467568 -1 23.294885222624856
v 394.17623694467568 -1 23.294885222624856
vn 0 1 0
vn 0 1 0
vn 0 1 0
vn 0 1 0
vn 0 0 1
vn 0 0 1
vn 0 0 1
vn 0 0 1
vn 1 0 0
vn 1 0 0
vn 1 0 0
vn 1 0 0
vn 0 0 -1
vn 0 0 -1
vn 0 0 -1
vn 0 0 -1
vn -1 0 0
vn -1 0 0
vn -1 0 0
vn -1 0 0
vn 0 -1 0
vn 0 -1 0
vn 0 -1 0
vn 0 -1 0
f 33//97 34//98 35//99 36//100
f 33//101 37//102 38//103 34//104
f 34//105 38//106 39//107 35//108
f 35//109 39//110 40//111 36//112
f 36//113 40//114 37//115 33//116
f 37//117 40//118 39//119 38//120
g object_6
v 414.17623694467568 0 31.794885222624828
v 414.17623694467568 0 23.294885222624856
v 404.17623694467568 0 23.294885222624856
v 404.17623694467568 0 31.794885222624828
v 404.17623694467568 -1 31.794885222624828
v 414.17623694467568 -1 31.794885222624828
v 404.17623694467568 -1 23.294885222624856
v 414.17623694467568 -1 23.294885222624856
vn 0 1 0
vn 0 1 0
vn 0 1 0
vn 0 1 0
vn 0 0 1
vn 0 0 1
vn 0 0 1
vn 0 0 1
vn -1 0 0
vn -1 0 0
vn -1 0 0
vn -1 0 0
vn 0 0 -1
vn 0 0 -1
vn 0 0 -1
vn 0 0 -1
vn 1 0 0
vn 1 0 0
vn 1 0 0
vn 1 0 0
vn 0 -1 0
vn 0 -1 0
vn 0 -1 0
vn 0 -1 0
f 41//121 42//122 43//123 44//124
f 41//125 44//126 45//127 46//128
f 44//129 43//130 47//131 45//132
f 43//133 42//134 48//135 47//136
f 42//137 41//138 46//139 48//140
f 46//141 45//142 47//143 48//144
g object_7
v 394.17623694467568 0 31.794885222624828
v 394.17623694467568 0 23.294885222624856
v 384.17623694467568 0 23.294885222624856
v 384.17623694467568 0 31.794885222624828
v 384.17623694467568 -1 31.794885222624828
v 394.17623694467568 -1 31.794885222624828
v 384.17623694467568 -1 23.294885222624856
v 394.17623694467568 -1 23.294885222624856
vn 0 1 0
vn 0 1 0
vn 0 1 0
vn 0 1 0
vn 0 0 1
vn 0 0 1
vn 0 0 1
vn 0 0 1
vn -1 0 0
vn -1 0 0
vn -1 0 0
vn -1 0 0
vn 0 0 -1
vn 0 0 -1
vn 0 0 -1
vn 0 0 -1
vn 1 0 0
vn 1 0 0
vn 1 0 0
vn 1 0 0
vn 0 -1 0
vn 0 -1 0
vn 0 -1 0
vn 0 -1 0
f 49//145 50//146 51//147 52//148
f 49//149 52//150 53//151 54//152
f 52//153 51//154 55//155 53//156
f 51//157 50//158 56//159 55//160
f 50//161 49//162 54//163 56//164
f 54//165 53//166 55//167 56//168
g object_8
v 358.67623528843063 0 31.794885222624771
v 367.17623528843063 0 31.794885222624771
v 367.17623528843063 0 23.294885222624771
v 358.67623528843063 0 23.294885222624771
v 358.67623528843063 -1 31.794885222624771
v 367.17623528843063 -1 31.794885222624771
v 367.17623528843063 -1 23.294885222624771
v 358.67623528843063 -1 23.294885222624771
vn 0 1 0
vn 0 1 0
vn 0 1 0
vn 0 1 0
vn 0 0 1
vn 0 0 1
vn 0 0 1
vn 0 0 1
vn 1 0 0
vn 1 0 0
vn 1 0 0
vn 1 0 0
vn 0 0 -1
vn 0 0 -1
vn 0 0 -1
vn 0 0 -1
vn -1 0 0
vn -1 0 0
vn -1 0 0
vn -1 0 0
vn 0 -1 0
vn 0 -1 0
vn 0 -1 0
vn 0 -1 0
f 57//169 58//170 59//171 60//172
f 57//173 61//174 62//175 58//176
f 58//177 62//178 63//179 59//180
f 59//181 63//182 64//183 60//184
f 60//185 64//186 61//187 57//188
f 61//189 64//190 63//191 62//192
g object_9
v 375.67623528843058 0 31.794885222624771
v 375.67623528843058 0 23.294885222624771
v 367.17623528843063 0 23.294885222624771
v 367.17623528843063 0 31.794885222624771
v 367.17623528843063 -1 31.794885222624771
v 375.67623528843058 -1 31.794885222624771
v 367.17623528843063 -1 23.294885222624771
v 375.67623528843058 -1 23.294885222624771
vn 0 1 0
vn 0 1 0
vn 0 1 0
vn 0 1 0
vn 0 0 1
vn 0 0 1
vn 0 0 1
vn 0 0 1
vn -1 0 0
vn -1 0 0
vn -1 0 0
vn -1 0 0
vn 0 0 -1
vn 0 0 -1
vn 0 0 -1
vn 0 0 -1
vn 1 0 0
vn 1 0 0
vn 1 0 0
vn 1 0 0
vn 0 -1 0
vn 0 -1 0
vn 0 -1 0
vn 0 -1 0
f 65//193 66//194 67//195 68//196
f 65//197 68//198 69//199 70//200
f 68//201 67//202 71//203 69//204
f 67//205 66//206 72//207 71//208
f 66//209 65//210 70//211 72//212
f 70//213 69//214 71//215 72//216
g object_10
v 375.67623528843058 0 31.794885222624828
v 384.17623694467568 0 31.794885222624828
v 384.17623694467568 0 23.294885222624856
v 375.67623528843058 0 23.294885222624856
v 375.67623528843058 -1 31.794885222624828
v 384.17623694467568 -1 31.794885222624828
v 384.17623694467568 -1 23.294885222624856
v 375.67623528843058 -1 23.294885222624856
vn 0 1 0
vn 0 1 0
vn 0 1 0
vn 0 1 0
vn 0 0 1
vn 0 0 1
vn 0 0 1
vn 0 0 1
vn 1 0 0
vn 1 0 0
vn 1 0 0
vn 1 0 0
vn 0 0 -1
vn 0 0 -1
vn 0 0 -1
vn 0 0 -1
vn -1 0 0
vn -1 0 0
vn -1 0 0
vn -1 0 0
vn 0 -1 0
vn 0 -1 0
vn 0 -1 0
vn 0 -1 0
f 73//217 74//218 75//219 76//220
f 73//221 77//222 78//223 74//224
f 74//225 78//226 79//227 75//228
f 75//229 79//230 80//231 76//232
f 76//233 80//234 77//235 73//236
f 77//237 80//238 79//239 78//240
g object_11
v 414.17623694467568 0 14.794885222624856
v 404.17623694467568 0 14.794885222624856
v 404.17623694467568 0 23.294885222624856
v 414.17623694467568 0 23.294885222624856
v 414.17623694467568 -1 14.794885222624856
v 404.17623694467568 -1 14.794885222624856
v 404.17623694467568 -1 23.294885222624856
v 414.17623694467568 -1 23.294885222624856
vn 0 1 0
vn 0 1 0
vn 0 1 0
vn 0 1 0
vn 0 0 -1
vn 0 0 -1
vn 0 0 -1
vn 0 0 -1
vn -1 0 0
vn -1 0 0
vn -1 0 0
vn -1 0 0
vn 0 0 1
vn 0 0 1
vn 0 0 1
vn 0 0 1
vn 1 0 0
vn 1 0 0
vn 1 0 0
vn 1 0 0
vn 0 -1 0
vn 0 -1 0
vn 0 -1 0
vn 0 -1 0
f 81//241 82//242 83//243 84//244
f 81//245 85//246 86//247 82//248
f 82//249 86//250 87//251 83//252
f 83//253 87//254 88//255 84//256
f 84//257 88//258 85//259 81//260
f 85//261 88//262 87//263 86//264
g object_12
v 394.17623694467568 0 14.794885222624856
v 384.17623694467568 0 14.794885222624856
v 384.17623694467568 0 23.294885222624856
v 394.17623694467568 0 23.294885222624856
v 394.17623694467568 -1 14.794885222624856
v 384.17623694467568 -1 14.794885222624856
v 384.17623694467568 -1 23.294885222624856
v 394.17623694467568 -1 23.294885222624856
vn 0 1 0
vn 0 1 0
vn 0 1 0
vn 0 1 0
vn 0 0 -1
vn 0 0 -1
vn 0 0 -1
vn 0 0 -1
vn -1 0 0
vn -1 0 0
vn -1 0 0
vn -1 0 0
vn 0 0 1
vn 0 0 1
vn 0 0 1
vn 0 0 1
vn 1 0 0
vn 1 0 0
vn 1 0 0
vn 1 0 0
vn 0 -1 0
vn 0 -1 0
vn 0 -1 0
vn 0 -1 0
f 89//265 90//266 91//267 92//268
f 89//269 93//270 94//271 90//272
f 90//273 94//274 95//275 91//276
f 91//277 95//278 96//279 92//280
f 92//281 96//282 93//283 89//284
f 93//285 96//286 95//287 94//288
g object_13
v 394.17623694467568 0 14.794885222624856
v 394.17623694467568 0 23.294885222624856
v 404.17623694467568 0 23.294885222624856
v 404.17623694467568 0 14.794885222624856
v 404.17623694467568 -1 14.794885222624856
v 394.17623694467568 -1 14.794885222624856
v 404.17623694467568 -1 23.294885222624856
v 394.17623694467568 -1 23.294885222624856
vn 0 1 0
vn 0 1 0
vn 0 1 0
vn 0 1 0
vn 0 0 -1
vn 0 0 -1
vn 0 0 -1
vn 0 0 -1
vn 1 0 0
vn 1 0 0
vn 1 0 0
vn 1 0 0
vn 0 0 1
vn 0 0 1
vn 0 0 1
vn 0 0 1
vn -1 0 0
vn -1 0 0
vn -1 0 0
vn -1 0 0
vn 0 -1 0
vn 0 -1 0
vn 0 -1 0
vn 0 -1 0
f 97//289 98//290 99//291 100//292
f 97//293 100//294 101//295 102//296
f 100//297 99//298 103//299 101//300
f 99//301 98//302 104//303 103//304
f 98//305 97//306 102//307 104//308
f 102//309 101//310 103//311 104//312
g object_14
v 358.67623528843063 0 14.794885222624771
v 358.67623528843063 0 23.294885222624771
v 367.17623528843063 0 23.294885222624771
v 367.17623528843063 0 14.794885222624771
v 367.17623528843063 -1 14.794885222624771
v 358.67623528843063 -1 14.794885222624771
v 367.17623528843063 -1 23.294885222624771
v 358.67623528843063 -1 23.294885222624771
vn 0 1 0
vn 0 1 0
vn 0 1 0
vn 0 1 0
vn 0 0 -1
vn 0 0 -1
vn 0 0 -1
vn 0 0 -1
vn 1 0 0
vn 1 0 0
vn 1 0 0
vn 1 0 0
vn 0 0 1
vn 0 0 1
vn 0 0 1
vn 0 0 1
vn -1 0 0
vn -1 0 0
vn -1 0 0
vn -1 0 0
vn 0 -1 0
vn 0 -1 0
vn 0 -1 0
vn 0 -1 0
f 105//313 106//314 107//315 108//316
f 105//317 108//318 109//319 110//320
f 108//321 107//322 111//323 109//324
f 107//325 106//326 112//327 111//328
f 106//329 105//330 110//331 112//332
f 110//333 109//334 111//335 112//336
g object_15
v 358.67623528843063 0 7.2948852226248277
v 358.67623528843063 0 14.794885222624771
v 367.17623528843063 0 14.794885222624771
v 367.17623528843063 0 7.2948852226248277
v 358.67623528843063 -1 7.2948852226248277
v 358.67623528843063 -1 14.794885222624771
v 367.17623528843063 -1 14.794885222624771
v 367.17623528843063 -1 7.2948852226248277
vn 0 1 0
vn 0 1 0
vn 0 1 0
vn 0 1 0
vn -1 0 0
vn -1 0 0
vn -1 0 0
vn -1 0 0
vn 0 0 1
vn 0 0 1
vn 0 0 1
vn 0 0 1
vn 1 0 0
vn 1 0 0
vn 1 0 0
vn 1 0 0
vn 0 0 -1
vn 0 0 -1
vn 0 0 -1
vn 0 0 -1
vn 0 -1 0
vn 0 -1 0
vn 0 -1 0
vn 0 -1 0
f 113//337 114//338 115//339 116//340
f 113//341 117//342 118//343 114//344
f 114//345 118//346 119//347 115//348
f 115//349 119//350 120//351 116//352
f 116//353 120//354 117//355 113//356
f 117//357 120//358 119//359 118//360
g object_16
v 375.67623528843058 0 7.2948852226248277
v 367.17623528843063 0 7.2948852226248277
v 367.17623528843063 0 14.794885222624771
v 375.67623528843058 0 14.794885222624771
v 375.67623528843058 -1 14.794885222624771
v 375.67623528843058 -1 7.2948852226248277
v 367.17623528843063 -1 14.794885222624771
v 367.17623528843063 -1 7.2948852226248277
vn 0 1 0
vn 0 1 0
vn 0 1 0
vn 0 1 0
vn 1 0 0
vn 1 0 0
vn 1 0 0
vn 1 0 0
vn 0 0 1
vn 0 0 1
vn 0 0 1
vn 0 0 1
vn -1 0 0
vn -1 0 0
vn -1 0 0
vn -1 0 0
vn 0 0 -1
vn 0 0 -1
vn 0 0 -1
vn 0 0 -1
vn 0 -1 0
vn 0 -1 0
vn 0 -1 0
vn 0 -1 0
f 121//361 122//362 123//363 124//364
f 121//365 124//366 125//367 126//368
f 124//369 123//370 127//371 125//372
f 123//373 122//374 128//375 127//376
f 122//377 121//378 126//379 128//380
f 126//381 125//382 127//383 128//384
g object_17
v 375.67623528843058 0 14.794885222624856
v 375.67623528843058 0 23.294885222624856
v 384.17623694467568 0 23.294885222624856
v 384.17623694467568 0 14.794885222624856
v 384.17623694467568 -1 14.794885222624856
v 375.67623528843058 -1 14.794885222624856
v 384.17623694467568 -1 23.294885222624856
v 375.67623528843058 -1 23.294885222624856
vn 0 1 0
vn 0 1 0
vn 0 1 0
vn 0 1 0
vn 0 0 -1
vn 0 0 -1
vn 0 0 -1
vn 0 0 -1
vn 1 0 0
vn 1 0 0
vn 1 0 0
vn 1 0 0
vn 0 0 1
vn 0 0 1
vn 0 0 1
vn 0 0 1
vn -1 0 0
vn -1 0 0
vn -1 0 0
vn -1 0 0
vn 0 -1 0
vn 0 -1 0
vn 0 -1 0
vn 0 -1 0
f 129//385 130//386 131//387 132//388
f 129//389 132//390 133//391 134//392
f 132//393 131//394 135//395 133//396
f 131//397 130//398 136//399 135//400
f 130//401 129//402 134//403 136//404
f 134//405 133//406 135//407 136//408
g object_18
v 375.67623528843058 0 14.794885222624771
v 367.17623528843063 0 14.794885222624771
v 367.17623528843063 0 23.294885222624771
v 375.67623528843058 0 23.294885222624771
v 375.67623528843058 -1 14.794885222624771
v 367.17623528843063 -1 14.794885222624771
v 367.17623528843063 -1 23.294885222624771
v 375.67623528843058 -1 23.294885222624771
vn 0 1 0
vn 0 1 0
vn 0 1 0
vn 0 1 0
vn 0 0 -1
vn 0 0 -1
vn 0 0 -1
vn 0 0 -1
vn -1 0 0
vn -1 0 0
vn -1 0 0
vn -1 0 0
vn 0 0 1
vn 0 0 1
vn 0 0 1
vn 0 0 1
vn 1 0 0
vn 1 0 0
vn 1 0 0
vn 1 0 0
vn 0 -1 0
vn 0 -1 0
vn 0 -1 0
vn 0 -1 0
f 137//409 138//410 139//411 140//412
f 137//413 141//414 142//415 138//416
f 138//417 142//418 143//419 139//420
f 139//421 143//422 144//423 140//424
f 140//425 144//426 141//427 137//428
f 141//429 144//430 143//431 142//432
g object_19
v 375.67623528843058 0 -32.705114777375172
v 367.17623528843063 0 -32.705114777375172
v 367.17623528843063 0 -22.705114777375172
v 375.67623528843058 0 -22.705114777375172
v 375.67623528843058 -1 -22.705114777375172
v 375.67623528843058 -1 -32.705114777375172
v 367.17623528843063 -1 -22.705114777375172
v 367.17623528843063 -1 -32.705114777375172
vn 0 1 0
vn 0 1 0
vn 0 1 0
vn 0 1 0
vn 1 0 0
vn 1 0 0
vn 1 0 0
vn 1 0 0
vn 0 0 1
vn 0 0 1
vn 0 0 1
vn 0 0 1
vn -1 0 0
vn -1 0 0
vn -1 0 0
vn -1 0 0
vn 0 0 -1
vn 0 0 -1
vn 0 0 -1
vn 0 0 -1
vn 0 -1 0
vn 0 -1 0
vn 0 -1 0
vn 0 -1 0
f 145//433 146//434 147//435 148//436
f 145//437 148//438 149//439 150//440
f 148//441 147//442 151//443 149//444
f 147//445 146//446 152//447 151//448
f 146//449 145//450 150//451 152//452
f 150//453 149//454 151//455 152//456
g object_20
v 375.67623528843058 0 -22.705114777375172
v 367.17623528843063 0 -22.705114777375172
v 367.17623528843063 0 -12.705114777375172
v 375.67623528843058 0 -12.705114777375172
v 375.67623528843058 -1 -12.705114777375172
v 375.67623528843058 -1 -22.705114777375172
v 367.17623528843063 -1 -12.705114777375172
v 367.17623528843063 -1 -22.705114777375172
vn 0 1 0
vn 0 1 0
vn 0 1 0
vn 0 1 0
vn 1 0 0
vn 1 0 0
vn 1 0 0
vn 1 0 0
vn 0 0 1
vn 0 0 1
vn 0 0 1
vn 0 0 1
vn -1 0 0
vn -1 0 0
vn -1 0 0
vn -1 0 0
vn 0 0 -1
vn 0 0 -1
vn 0 0 -1
vn 0 0 -1
vn 0 -1 0
vn 0 -1 0
vn 0 -1 0
vn 0 -1 0
f 153//457 154//458 155//459 156//460
f 153//461 156//462 157//463 158//464
f 156//465 155//466 159//467 157//468
f 155//469 154//470 160//471 159//472
f 154//473 153//474 158//475 160//476
f 158//477 157//478 159//479 160//480
g object_21
v 375.67623528843058 0 -12.705114777375172
v 367.17623528843063 0 -12.705114777375172
v 367.17623528843063 0 -2.7051147773751723
v 375.67623528843058 0 -2.7051147773751723
v 375.67623528843058 -1 -2.7051147773751723
v 375.67623528843058 -1 -12.705114777375172
v 367.17623528843063 -1 -2.7051147773751723
v 367.17623528843063 -1 -12.705114777375172
vn 0 1 0
vn 0 1 0
vn 0 1 0
vn 0 1 0
vn 1 0 0
vn 1 0 0
vn 1 0 0
vn 1 0 0
vn 0 0 1
vn 0 0 1
vn 0 0 1
vn 0 0 1
vn -1 0 0
vn -1 0 0
vn -1 0 0
vn -1 0 0
vn 0 0 -1
vn 0 0 -1
vn 0 0 -1
vn 0 0 -1
vn 0 -1 0
vn 0 -1 0
vn 0 -1 0
vn 0 -1 0
f 161//481 162//482 163//483 164//484
f 161//485 164//486 165//487 166//488
f 164//489 163//490 167//491 165//492
f 163//493 162//494 168//495 167//496
f 162//497 161//498 166//499 168//500
f 166//501 165//502 167//503 168//504
g object_22
v 375.67623528843058 0 -2.7051147773751723
v 367.17623528843063 0 -2.7051147773751723
v 367.17623528843063 0 7.2948852226248277
v 375.67623528843058 0 7.2948852226248277
v 375.67623528843058 -1 7.2948852226248277
v 375.67623528843058 -1 -2.7051147773751723
v 367.17623528843063 -1 7.2948852226248277
v 367.17623528843063 -1 -2.7051147773751723
vn 0 1 0
vn 0 1 0
vn 0 1 0
vn 0 1 0
vn 1 0 0
vn 1 0 0
vn 1 0 0
vn 1 0 0
vn 0 0 1
vn 0 0 1
vn 0 0 1
vn 0 0 1
vn -1 0 0
vn -1 0 0
vn -1 0 0
vn -1 0 0
vn 0 0 -1
vn 0 0 -1
vn 0 0 -1
vn 0 0 -1
vn 0 -1 0
vn 0 -1 0
vn 0 -1 0
vn 0 -1 0
f 169//505 170//506 171//507 172//508
f 169//509 172//510 173//511 174//512
f 172//513 171//514 175//515 173//516
f 171//517 170//518 176//519 175//520
f 170//521 169//522 174//523 176//524
f 174//525 173//526 175//527 176//528
g object_23
v 375.67623528843058 0 -57.205114777375115
v 367.17623528843063 0 -57.205114777375115
v 367.17623528843063 0 -48.705114777375144
v 375.67623528843058 0 -48.705114777375144
v 375.67623528843058 -1 -57.205114777375115
v 367.17623528843063 -1 -57.205114777375115
v 367.17623528843063 -1 -48.705114777375144
v 375.67623528843058 -1 -48.705114777375144
vn 0 1 0
vn 0 1 0
vn 0 1 0
vn 0 1 0
vn 0 0 -1
vn 0 0 -1
vn 0 0 -1
vn 0 0 -1
vn -1 0 0
vn -1 0 0
vn -1 0 0
vn -1 0 0
vn 0 0 1
vn 0 0 1
vn 0 0 1
vn 0 0 1
vn 1 0 0
vn 1 0 0
vn 1 0 0
vn 1 0 0
vn 0 -1 0
vn 0 -1 0
vn 0 -1 0
vn 0 -1 0
f 177//529 178//530 179//531 180//532
f 177//533 181//534 182//535 178//536
f 178//537 182//538 183//539 179//540
f 179//541 183//542 184//543 180//544
f 180//545 184//546 181//547 177//548
f 181//549 184//550 183//551 182//552
g object_24
v 375.67623528843058 0 -40.205114777375144
v 375.67623528843058 0 -48.705114777375144
v 367.17623528843063 0 -48.705114777375144
v 367.17623528843063 0 -40.205114777375144
v 367.17623528843063 -1 -40.205114777375144
v 375.67623528843058 -1 -40.205114777375144
v 367.17623528843063 -1 -48.705114777375144
v 375.67623528843058 -1 -48.705114777375144
vn 0 1 0
vn 0 1 0
vn 0 1 0
vn 0 1 0
vn 0 0 1
vn 0 0 1
vn 0 0 1
vn 0 0 1
vn -1 0 0
vn -1 0 0
vn -1 0 0
vn -1 0 0
vn 0 0 -1
vn 0 0 -1
vn 0 0 -1
vn 0 0 -1
vn 1 0 0
vn 1 0 0
vn 1 0 0
vn 1 0 0
vn 0 -1 0
vn 0 -1 0
vn 0 -1 0
vn 0 -1 0
f 185//553 186//554 187//555 188//556
f 185//557 188//558 189//559 190//560
f 188//561 187//562 191//563 189//564
f 187//565 186//566 192//567 191//568
f 186//569 185//570 190//571 192//572
f 190//573 189//574 191//575 192//576
g object_25
v 375.67623528843058 0 -32.705114777375172
v 375.67623528843058 0 -40.205114777375144
v 367.17623528843063 0 -40.205114777375144
v 367.17623528843063 0 -32.705114777375172
v 375.67623528843058 -1 -32.705114777375172
v 375.67623528843058 -1 -40.205114777375144
v 367.17623528843063 -1 -40.205114777375144
v 367.17623528843063 -1 -32.705114777375172
vn 0 1 0
vn 0 1 0
vn 0 1 0
vn 0 1 0
vn 1 0 0
vn 1 0 0
vn 1 0 0
vn 1 0 0
vn 0 0 -1
vn 0 0 -1
vn 0 0 -1
vn 0 0 -1
vn -1 0 0
vn -1 0 0
vn -1 0 0
vn -1 0 0
vn 0 0 1
vn 0 0 1
vn 0 0 1
vn 0 0 1
vn 0 -1 0
vn 0 -1 0
vn 0 -1 0
vn 0 -1 0
f 193//577 194//578 195//579 196//580
f 193//581 197//582 198//583 194//584
f 194//585 198//586 199//587 195//588
f 195//589 199//590 200//591 196//592
f 196//593 200//594 197//595 193//596
f 197//597 200//598 199//599 198//600
g object_26
v 358.67623528843063 0 -32.705114777375172
v 358.67623528843063 0 -22.705114777375172
v 367.17623528843063 0 -22.705114777375172
v 367.17623528843063 0 -32.705114777375172
v 358.67623528843063 -1 -32.705114777375172
v 358.67623528843063 -1 -22.705114777375172
v 367.17623528843063 -1 -22.705114777375172
v 367.17623528843063 -1 -32.705114777375172
vn 0 1 0
vn 0 1 0
vn 0 1 0
vn 0 1 0
vn -1 0 0
vn -1 0 0
vn -1 0 0
vn -1 0 0
vn 0 0 1
vn 0 0 1
vn 0 0 1
vn 0 0 1
vn 1 0 0
vn 1 0 0
vn 1 0 0
vn 1 0 0
vn 0 0 -1
vn 0 0 -1
vn 0 0 -1
vn 0 0 -1
vn 0 -1 0
vn 0 -1 0
vn 0 -1 0
vn 0 -1 0
f 201//601 202//602 203//603 204//604
f 201//605 205//606 206//607 202//608
f 202//609 206//610 207//611 203//612
f 203//613 207//614 208//615 204//616
f 204//617 208//618 205//619 201//620
f 205//621 208//622 207//623 206//624
g object_27
v 358.67623528843063 0 -22.705114777375172
v 358.67623528843063 0 -12.705114777375172
v 367.17623528843063 0 -12.705114777375172
v 367.17623528843063 0 -22.705114777375172
v 358.67623528843063 -1 -22.705114777375172
v 358.67623528843063 -1 -12.705114777375172
v 367.17623528843063 -1 -12.705114777375172
v 367.17623528843063 -1 -22.705114777375172
vn 0 1 0
vn 0 1 0
vn 0 1 0
vn 0 1 0
vn -1 0 0
vn -1 0 0
vn -1 0 0
vn -1 0 0
vn 0 0 1
vn 0 0 1
vn 0 0 1
vn 0 0 1
vn 1 0 0
vn 1 0 0
vn 1 0 0
vn 1 0 0
vn 0 0 -1
vn 0 0 -1
vn 0 0 -1
vn 0 0 -1
vn 0 -1 0
vn 0 -1 0
vn 0 -1 0
vn 0 -1 0
f 209//625 210//626 211//627 212//628
f 209//629 213//630 214//631 210//632
f 210//633 214//634 215//635 211//636
f 211//637 215//638 216//639 212//640
f 212//641 216//642 213//643 209//644
f 213//645 216//646 215//647 214//648
g object_28
v 358.67623528843063 0 -12.705114777375172
v 358.67623528843063 0 -2.7051147773751723
v 367.17623528843063 0 -2.7051147773751723
v 367.17623528843063 0 -12.705114777375172
v 358.67623528843063 -1 -12.705114777375172
v 358.67623528843063 -1 -2.7051147773751723
v 367.17623528843063 -1 -2.7051147773751723
v 367.17623528843063 -1 -12.705114777375172
vn 0 1 0
vn 0 1 0
vn 0 1 0
vn 0 1 0
vn -1 0 0
vn -1 0 0
vn -1 0 0
vn -1 0 0
vn 0 0 1
vn 0 0 1
vn 0 0 1
vn 0 0 1
vn 1 0 0
vn 1 0 0
vn 1 0 0
vn 1 0 0
vn 0 0 -1
vn 0 0 -1
vn 0 0 -1
vn 0 0 -1
vn 0 -1 0
vn 0 -1 0
vn 0 -1 0
vn 0 -1 0
f 217//649 218//650 219//651 220//652
f 217//653 221//654 222//655 218//656
f 218//657 222//658 223//659 219//660
f 219//661 223//662 224//663 220//664
f 220//665 224//666 221//667 217//668
f 221//669 224//670 223//671 222//672
g object_29
v 358.67623528843063 0 -2.7051147773751723
v 358.67623528843063 0 7.2948852226248277
v 367.17623528843063 0 7.2948852226248277
v 367.17623528843063 0 -2.7051147773751723
v 358.67623528843063 -1 -2.7051147773751723
v 358.67623528843063 -1 7.2948852226248277
v 367.17623528843063 -1 7.2948852226248277
v 367.17623528843063 -1 -2.7051147773751723
vn 0 1 0
vn 0 1 0
vn 0 1 0
vn 0 1 0
vn -1 0 0
vn -1 0 0
vn -1 0 0
vn -1 0 0
vn 0 0 1
vn 0 0 1
vn 0 0 1
vn 0 0 1
vn 1 0 0
vn 1 0 0
vn 1 0 0
vn 1 0 0
vn 0 0 -1
vn 0 0 -1
vn 0 0 -1
vn 0 0 -1
vn 0 -1 0
vn 0 -1 0
vn 0 -1 0
vn 0 -1 0
f 225//673 226//674 227//675 228//676
f 225//677 229//678 230//679 226//680
f 226//681 230//682 231//683 227//684
f 227//685 231//686 232//687 228//688
f 228//689 232//690 229//691 225//692
f 229//693 232//694 231//695 230//696
g object_30
v 358.67623528843063 0 -57.205114777375115
v 350.17623694467568 0 -57.205114777375115
v 350.17623694467568 0 -48.705114777375144
v 358.67623528843063 0 -48.705114777375144
v 358.67623528843063 -1 -57.205114777375115
v 350.17623694467568 -1 -57.205114777375115
v 350.17623694467568 -1 -48.705114777375144
v 358.67623528843063 -1 -48.705114777375144
vn 0 1 0
vn 0 1 0
vn 0 1 0
vn 0 1 0
vn 0 0 -1
vn 0 0 -1
vn 0 0 -1
vn 0 0 -1
vn -1 0 0
vn -1 0 0
vn -1 0 0
vn -1 0 0
vn 0 0 1
vn 0 0 1
vn 0 0 1
vn 0 0 1
vn 1 0 0
vn 1 0 0
vn 1 0 0
vn 1 0 0
vn 0 -1 0
vn 0 -1 0
vn 0 -1 0
vn 0 -1 0
f 233//697 234//698 235//699 236//700
f 233//701 237//702 238//703 234//704
f 234//705 238//706 239//707 235//708
f 235//709 239//710 240//711 236//712
f 236//713 240//714 237//715 233//716
f 237//717 240//718 239//719 238//720
g object_31
v 358.67623528843063 0 -57.205114777375115
v 358.67623528843063 0 -48.705114777375144
v 367.17623528843063 0 -48.705114777375144
v 367.17623528843063 0 -57.205114777375115
v 367.17623528843063 -1 -57.205114777375115
v 358.67623528843063 -1 -57.205114777375115
v 367.17623528843063 -1 -48.705114777375144
v 358.67623528843063 -1 -48.705114777375144
vn 0 1 0
vn 0 1 0
vn 0 1 0
vn 0 1 0
vn 0 0 -1
vn 0 0 -1
vn 0 0 -1
vn 0 0 -1
vn 1 0 0
vn 1 0 0
vn 1 0 0
vn 1 0 0
vn 0 0 1
vn 0 0 1
vn 0 0 1
vn 0 0 1
vn -1 0 0
vn -1 0 0
vn -1 0 0
vn -1 0 0
vn 0 -1 0
vn 0 -1 0
vn 0 -1 0
vn 0 -1 0
f 241//721 242//722 243//723 244//724
f 241//725 244//726 245//727 246//728
f 244//729 243//730 247//731 245//732
f 243//733 242//734 248//735 247//736
f 242//737 241//738 246//739 248//740
f 246//741 245//742 247//743 248//744
g object_32
v 358.67623528843063 0 -40.205114777375144
v 358.67623528843063 0 -48.705114777375144
v 350.17623694467568 0 -48.705114777375144
v 350.17623694467568 0 -40.205114777375144
v 350.17623694467568 -1 -40.205114777375144
v 358.67623528843063 -1 -40.205114777375144
v 350.17623694467568 -1 -48.705114777375144
v 358.67623528843063 -1 -48.705114777375144
vn 0 1 0
vn 0 1 0
vn 0 1 0
vn 0 1 0
vn 0 0 1
vn 0 0 1
vn 0 0 1
vn 0 0 1
vn -1 0 0
vn -1 0 0
vn -1 0 0
vn -1 0 0
vn 0 0 -1
vn 0 0 -1
vn 0 0 -1
vn 0 0 -1
vn 1 0 0
vn 1 0 0
vn 1 0 0
vn 1 0 0
vn 0 -1 0
vn 0 -1 0
vn 0 -1 0
vn 0 -1 0
f 249//745 250//746 251//747 252//748
f 249//749 252//750 253//751 254//752
f 252//753 251//754 255//755 253//756
f 251//757 250//758 256//759 255//760
f 250//761 249//762 254//763 256//764
f 254//765 253//766 255//767 256//768
g object_33
v 358.67623528843063 0 -32.705114777375172
v 367.17623528843063 0 -32.705114777375172
v 367.17623528843063 0 -40.205114777375144
v 358.67623528843063 0 -40.205114777375144
v 358.67623528843063 -1 -40.205114777375144
v 358.67623528843063 -1 -32.705114777375172
v 367.17623528843063 -1 -40.205114777375144
v 367.17623528843063 -1 -32.705114777375172
vn 0 1 0
vn 0 1 0
vn 0 1 0
vn 0 1 0
vn -1 0 0
vn -1 0 0
vn -1 0 0
vn -1 0 0
vn 0 0 -1
vn 0 0 -1
vn 0 0 -1
vn 0 0 -1
vn 1 0 0
vn 1 0 0
vn 1 0 0
vn 1 0 0
vn 0 0 1
vn 0 0 1
vn 0 0 1
vn 0 0 1
vn 0 -1 0
vn 0 -1 0
vn 0 -1 0
vn 0 -1 0
f 257//769 258//770 259//771 260//772
f 257//773 260//774 261//775 262//776
f 260//777 259//778 263//779 261//780
f 259//781 258//782 264//783 263//784
f 258//785 257//786 262//787 264//788
f 262//789 261//790 263//791 264//792
g object_34
v 358.67623528843063 0 -40.205114777375144
v 367.17623528843063 0 -40.205114777375144
v 367.17623528843063 0 -48.705114777375144
v 358.67623528843063 0 -48.705114777375144
v 358.67623528843063 -1 -40.205114777375144
v 367.17623528843063 -1 -40.205114777375144
v 367.17623528843063 -1 -48.705114777375144
v 358.67623528843063 -1 -48.705114777375144
vn 0 1 0
vn 0 1 0
vn 0 1 0
vn 0 1 0
vn 0 0 1
vn 0 0 1
vn 0 0 1
vn 0 0 1
vn 1 0 0
vn 1 0 0
vn 1 0 0
vn 1 0 0
vn 0 0 -1
vn 0 0 -1
vn 0 0 -1
vn 0 0 -1
vn -1 0 0
vn -1 0 0
vn -1 0 0
vn -1 0 0
vn 0 -1 0
vn 0 -1 0
vn 0 -1 0
vn 0 -1 0
f 265//793 266//794 267//795 268//796
f 265//797 269//798 270//799 266//800
f 266//801 270//802 271//803 267//804
f 267//805 271//806 272//807 268//808
f 268//809 272//810 269//811 265//812
f 269//813 272//814 271//815 270//816
g object_35
v 340.17623694467568 0 -40.205114777375144
v 350.17623694467568 0 -40.205114777375144
v 350.17623694467568 0 -48.705114777375144
v 340.17623694467568 0 -48.705114777375144
v 340.17623694467568 -1 -40.205114777375144
v 350.17623694467568 -1 -40.205114777375144
v 350.17623694467568 -1 -48.705114777375144
v 340.17623694467568 -1 -48.705114777375144
vn 0 1 0
vn 0 1 0
vn 0 1 0
vn 0 1 0
vn 0 0 1
vn 0 0 1
vn 0 0 1
vn 0 0 1
vn 1 0 0
vn 1 0 0
vn 1 0 0
vn 1 0 0
vn 0 0 -1
vn 0 0 -1
vn 0 0 -1
vn 0 0 -1
vn -1 0 0
vn -1 0 0
vn -1 0 0
vn -1 0 0
vn 0 -1 0
vn 0 -1 0
vn 0 -1 0
vn 0 -1 0
f 273//817 274//818 275//819 276//820
f 273//821 277//822 278//823 274//824
f 274//825 278//826 279//827 275//828
f 275//829 279//830 280//831 276//832
f 276//833 280//834 277//835 273//836
f 277//837 280//838 279//839 278//840
g object_36
v 320.17623694467568 0 -40.205114777375144
v 330.17623694467568 0 -40.205114777375144
v 330.17623694467568 0 -48.705114777375144
v 320.17623694467568 0 -48.705114777375144
v 320.17623694467568 -1 -40.205114777375144
v 330.17623694467568 -1 -40.205114777375144
v 330.17623694467568 -1 -48.705114777375144
v 320.17623694467568 -1 -48.705114777375144
vn 0 1 0
vn 0 1 0
vn 0 1 0
vn 0 1 0
vn 0 0 1
vn 0 0 1
vn 0 0 1
vn 0 0 1
vn 1 0 0
vn 1 0 0
vn 1 0 0
vn 1 0 0
vn 0 0 -1
vn 0 0 -1
vn 0 0 -1
vn 0 0 -1
vn -1 0 0
vn -1 0 0
vn -1 0 0
vn -1 0 0
vn 0 -1 0
vn 0 -1 0
vn 0 -1 0
vn 0 -1 0
f 281//841 282//842 283//843 284//844
f 281//845 285//846 286//847 282//848
f 282//849 286//850 287//851 283//852
f 283//853 287//854 288//855 284//856
f 284//857 288//858 285//859 281//860
f 285//861 288//862 287//863 286//864
g object_37
v 340.17623694467568 0 -40.205114777375144
v 340.17623694467568 0 -48.705114777375144
v 330.17623694467568 0 -48.705114777375144
v 330.17623694467568 0 -40.205114777375144
v 330.17623694467568 -1 -40.205114777375144
v 340.17623694467568 -1 -40.205114777375144
v 330.17623694467568 -1 -48.705114777375144
v 340.17623694467568 -1 -48.705114777375144
vn 0 1 0
vn 0 1 0
vn 0 1 0
vn 0 1 0
vn 0 0 1
vn 0 0 1
vn 0 0 1
vn 0 0 1
vn -1 0 0
vn -1 0 0
vn -1 0 0
vn -1 0 0
vn 0 0 -1
vn 0 0 -1
vn 0 0 -1
vn 0 0 -1
vn 1 0 0
vn 1 0 0
vn 1 0 0
vn 1 0 0
vn 0 -1 0
vn 0 -1 0
vn 0 -1 0
vn 0 -1 0
f 289//865 290//866 291//867 292//868
f 289//869 292//870 293//871 294//872
f 292//873 291//874 295//875 293//876
f 291//877 290//878 296//879 295//880
f 290//881 289//882 294//883 296//884
f 294//885 293//886 295//887 296//888
g object_38
v 320.17623694467568 0 -57.205114777375115
v 320.17623694467568 0 -48.705114777375144
v 330.17623694467568 0 -48.705114777375144
v 330.17623694467568 0 -57.205114777375115
v 330.17623694467568 -1 -57.205114777375115
v 320.17623694467568 -1 -57.205114777375115
v 330.17623694467568 -1 -48.705114777375144
v 320.17623694467568 -1 -48.705114777375144
vn 0 1 0
vn 0 1 0
vn 0 1 0
vn 0 1 0
vn 0 0 -1
vn 0 0 -1
vn 0 0 -1
vn 0 0 -1
vn 1 0 0
vn 1 0 0
vn 1 0 0
vn 1 0 0
vn 0 0 1
vn 0 0 1
vn 0 0 1
vn 0 0 1
vn -1 0 0
vn -1 0 0
vn -1 0 0
vn -1 0 0
vn 0 -1 0
vn 0 -1 0
vn 0 -1 0
vn 0 -1 0
f 297//889 298//890 299//891 300//892
f 297//893 300//894 301//895 302//896
f 300//897 299//898 303//899 301//900
f 299//901 298//902 304//903 303//904
f 298//905 297//906 302//907 304//908
f 302//909 301//910 303//911 304//912
g object_39
v 340.17623694467568 0 -57.205114777375115
v 340.17623694467568 0 -48.705114777375144
v 350.17623694467568 0 -48.705114777375144
v 350.17623694467568 0 -57.205114777375115
v 350.17623694467568 -1 -57.205114777375115
v 340.17623694467568 -1 -57.205114777375115
v 350.17623694467568 -1 -48.705114777375144
v 340.17623694467568 -1 -48.705114777375144
vn 0 1 0
vn 0 1 0
vn 0 1 0
vn 0 1 0
vn 0 0 -1
vn 0 0 -1
vn 0 0 -1
vn 0 0 -1
vn 1 0 0
vn 1 0 0
vn 1 0 0
vn 1 0 0
vn 0 0 1
vn 0 0 1
vn 0 0 1
vn 0 0 1
vn -1 0 0
vn -1 0 0
vn -1 0 0
vn -1 0 0
vn 0 -1 0
vn 0 -1 0
vn 0 -1 0
vn 0 -1 0
f 305//913 306//914 307//915 308//916
f 305//917 308//918 309//919 310//920
f 308//921 307//922 311//923 309//924
f 307//925 306//926 312//927 311//928
f 306//929 305//930 310//931 312//932
f 310//933 309//934 311//935 312//936
g object_40
v 340.17623694467568 0 -57.205114777375115
v 330.17623694467568 0 -57.205114777375115
v 330.17623694467568 0 -48.705114777375144
v 340.17623694467568 0 -48.705114777375144
v 340.17623694467568 -1 -57.205114777375115
v 330.17623694467568 -1 -57.205114777375115
v 330.17623694467568 -1 -48.705114777375144
v 340.17623694467568 -1 -48.705114777375144
vn 0 1 0
vn 0 1 0
vn 0 1 0
vn 0 1 0
vn 0 0 -1
vn 0 0 -1
vn 0 0 -1
vn 0 0 -1
vn -1 0 0
vn -1 0 0
vn -1 0 0
vn -1 0 0
vn 0 0 1
vn 0 0 1
vn 0 0 1
vn 0 0 1
vn 1 0 0
vn 1 0 0
vn 1 0 0
vn 1 0 0
vn 0 -1 0
vn 0 -1 0
vn 0 -1 0
vn 0 -1 0
f 313//937 314//938 315//939 316//940
f 313//941 317//942 318//943 314//944
f 314//945 318//946 319//947 315//948
f 315//949 319//950 320//951 316//952
f 316//953 320//954 317//955 313//956
f 317//957 320//958 319//959 318//960
